<svg width="1677" height="973" viewBox="0 0 1677 973" fill="none" xmlns="http://www.w3.org/2000/svg">
<path fill-rule="evenodd" clip-rule="evenodd" d="M1021.65 192.661L1050.76 177.013C1037.95 153.177 1008.24 144.242 984.399 157.056C960.563 169.87 951.628 199.58 964.442 223.416L993.549 207.769C989.377 200.008 992.286 190.335 1000.05 186.163C1007.81 181.991 1017.48 184.9 1021.65 192.661Z" fill="#ECA451"/>
<path fill-rule="evenodd" clip-rule="evenodd" d="M462.794 20.8242L431.491 31.4189C440.168 57.0523 467.981 70.799 493.614 62.123C519.248 53.4469 532.995 25.6334 524.318 9.29832e-06L493.016 10.5947C495.841 18.9406 491.366 27.996 483.02 30.8208C474.674 33.6456 465.618 29.17 462.794 20.8242Z" fill="#C0C195"/>
<path fill-rule="evenodd" clip-rule="evenodd" d="M720.412 839.942L749.519 824.294C736.705 800.458 706.995 791.523 683.159 804.337C659.323 817.151 650.388 846.861 663.201 870.697L692.309 855.05C688.137 847.289 691.046 837.616 698.806 833.444C706.567 829.272 716.24 832.181 720.412 839.942Z" fill="#C0C195"/>
<path fill-rule="evenodd" clip-rule="evenodd" d="M1620.83 726.848L1647.78 745.975C1663.44 723.907 1658.25 693.319 1636.18 677.656C1614.11 661.993 1583.52 667.185 1567.86 689.254L1594.81 708.381C1599.91 701.196 1609.87 699.505 1617.05 704.605C1624.24 709.704 1625.93 719.663 1620.83 726.848Z" fill="#4C9790"/>
<path fill-rule="evenodd" clip-rule="evenodd" d="M139.968 486.688L166.917 505.815C182.58 483.747 177.387 453.159 155.319 437.496C133.251 421.833 102.663 427.025 87 449.094L113.949 468.221C119.048 461.035 129.007 459.345 136.192 464.445C143.377 469.544 145.068 479.503 139.968 486.688Z" fill="#2A4744"/>
<path d="M103.999 827.708C106.247 829.34 108.857 830.128 111.447 830.128C115.346 830.128 119.194 828.343 121.67 824.99C121.678 824.982 121.684 824.975 121.691 824.967C121.697 824.959 121.703 824.951 121.708 824.944L121.717 824.931C121.723 824.923 121.728 824.915 121.734 824.907L130.497 812.859L139.259 824.907C139.268 824.92 139.277 824.93 139.286 824.941C139.29 824.947 139.293 824.952 139.298 824.958C143.425 830.579 151.356 831.817 157.001 827.714C162.652 823.612 163.916 815.679 159.839 810.014L159.83 810C159.822 809.988 159.817 809.979 159.807 809.97L151.063 797.915L165.23 793.304C171.885 791.139 175.542 783.956 173.377 777.3C171.212 770.644 164.036 766.986 157.375 769.145L143.209 773.737L143.203 758.831C143.196 751.832 137.5 746.135 130.503 746.135C123.506 746.135 117.81 751.832 117.804 758.837L117.791 773.731L103.625 769.139C103.619 769.139 103.612 769.137 103.605 769.135C103.596 769.133 103.587 769.13 103.58 769.126C96.9319 766.992 89.7821 770.65 87.6231 777.294C85.4642 783.937 89.0963 791.094 95.7191 793.279C95.7252 793.281 95.7307 793.283 95.736 793.285L95.7593 793.294L95.7699 793.298L109.93 797.909L101.186 809.963C101.183 809.97 101.178 809.976 101.174 809.982C101.169 809.989 101.164 809.995 101.161 810.001C97.0779 815.666 98.3479 823.605 103.999 827.708Z" fill="#ECA451"/>
<path d="M852.999 545.708C855.247 547.34 857.857 548.128 860.447 548.128C864.346 548.128 868.194 546.343 870.67 542.99C870.678 542.982 870.684 542.975 870.691 542.967C870.697 542.959 870.703 542.951 870.708 542.944L870.717 542.931C870.723 542.923 870.728 542.915 870.734 542.907L879.497 530.859L888.259 542.907C888.268 542.92 888.277 542.93 888.286 542.941C888.29 542.947 888.293 542.952 888.298 542.958C892.425 548.579 900.356 549.817 906.001 545.714C911.652 541.612 912.916 533.679 908.839 528.014L908.83 528C908.822 527.988 908.817 527.979 908.807 527.97L900.063 515.915L914.23 511.304C920.885 509.139 924.542 501.956 922.377 495.3C920.212 488.644 913.036 484.986 906.375 487.145L892.209 491.737L892.203 476.831C892.196 469.832 886.5 464.135 879.503 464.135C872.506 464.135 866.81 469.832 866.804 476.837L866.791 491.731L852.625 487.139C852.619 487.139 852.612 487.137 852.605 487.135C852.596 487.133 852.587 487.13 852.58 487.126C845.932 484.992 838.782 488.65 836.623 495.294C834.464 501.937 838.096 509.094 844.719 511.279C844.725 511.281 844.731 511.283 844.736 511.285L844.759 511.294L844.77 511.298L858.93 515.909L850.186 527.963C850.183 527.97 850.178 527.976 850.174 527.982C850.169 527.989 850.164 527.995 850.161 528.001C846.078 533.666 847.348 541.605 852.999 545.708Z" fill="#C0C195"/>
<path d="M16.9992 117.708C19.247 119.34 21.8568 120.128 24.4475 120.128C28.3464 120.128 32.1941 118.343 34.6705 114.99C34.6776 114.982 34.6843 114.975 34.6906 114.967C34.6966 114.959 34.7026 114.951 34.7082 114.944L34.7168 114.931C34.7228 114.923 34.7284 114.915 34.734 114.907L43.4967 102.859L52.2594 114.907C52.268 114.92 52.277 114.93 52.2856 114.941C52.2897 114.947 52.2934 114.952 52.2975 114.958C56.425 120.579 64.3558 121.817 70.0008 117.714C75.652 113.612 76.9156 105.679 72.8389 100.014L72.8299 99.9999C72.8225 99.9879 72.8165 99.979 72.8072 99.9696L64.0635 87.9151L78.2299 83.3044C84.8845 81.1387 88.5419 73.9558 86.3766 67.2996C84.2116 60.6438 77.0362 56.9856 70.3753 59.145L56.2092 63.7369L56.2028 48.831C56.1961 41.8321 50.5004 36.1353 43.503 36.1353C36.5057 36.1353 30.81 41.8321 30.8036 48.8373L30.7909 63.7305L16.6246 59.1387C16.619 59.1387 16.6122 59.1374 16.6053 59.1355C16.5964 59.1331 16.5872 59.1295 16.5801 59.126C9.93189 56.992 2.78205 60.6502 0.623139 67.2936C-1.53581 73.9367 2.09632 81.0943 8.71908 83.279C8.72521 83.2809 8.7307 83.2831 8.73596 83.2854L8.7593 83.2943L8.76994 83.2981L22.9299 87.9087L14.1862 99.9633C14.183 99.9696 14.1783 99.976 14.1736 99.9823C14.1688 99.9887 14.1641 99.995 14.1609 100.001C10.0779 105.666 11.3479 113.605 16.9992 117.708Z" fill="#ECA451"/>
<path fill-rule="evenodd" clip-rule="evenodd" d="M1354.41 941.942L1383.52 926.294C1370.71 902.458 1340.99 893.523 1317.16 906.337C1293.32 919.151 1284.39 948.861 1297.2 972.697L1326.31 957.05C1322.14 949.289 1325.05 939.616 1332.81 935.444C1340.57 931.272 1350.24 934.181 1354.41 941.942Z" fill="#ECA451"/>
<path d="M1564 552.708C1566.25 554.34 1568.86 555.128 1571.45 555.128C1575.35 555.128 1579.19 553.343 1581.67 549.99C1581.68 549.982 1581.68 549.975 1581.69 549.967C1581.7 549.959 1581.7 549.951 1581.71 549.944L1581.72 549.931C1581.72 549.923 1581.73 549.915 1581.73 549.907L1590.5 537.859L1599.26 549.907C1599.27 549.92 1599.28 549.93 1599.29 549.941C1599.29 549.947 1599.29 549.952 1599.3 549.958C1603.43 555.579 1611.36 556.817 1617 552.714C1622.65 548.612 1623.92 540.679 1619.84 535.014L1619.83 535C1619.82 534.988 1619.82 534.979 1619.81 534.97L1611.06 522.915L1625.23 518.304C1631.88 516.139 1635.54 508.956 1633.38 502.3C1631.21 495.644 1624.04 491.986 1617.38 494.145L1603.21 498.737L1603.2 483.831C1603.2 476.832 1597.5 471.135 1590.5 471.135C1583.51 471.135 1577.81 476.832 1577.8 483.837L1577.79 498.731L1563.62 494.139C1563.62 494.139 1563.61 494.137 1563.61 494.135C1563.6 494.133 1563.59 494.13 1563.58 494.126C1556.93 491.992 1549.78 495.65 1547.62 502.294C1545.46 508.937 1549.1 516.094 1555.72 518.279C1555.73 518.281 1555.73 518.283 1555.74 518.285L1555.76 518.294L1555.77 518.298L1569.93 522.909L1561.19 534.963C1561.18 534.97 1561.18 534.976 1561.17 534.982C1561.17 534.989 1561.16 534.995 1561.16 535.001C1557.08 540.666 1558.35 548.605 1564 552.708Z" fill="#ECA451"/>
</svg>
