<svg width="410" height="410" viewBox="0 0 410 410" fill="none" xmlns="http://www.w3.org/2000/svg">
<path d="M227.94 322.081H183.701C183.487 322.078 183.284 321.991 183.133 321.841C182.982 321.69 182.896 321.486 182.893 321.273C182.216 300.882 182.087 280.23 181.96 252.393C173.809 249.318 164.945 245.776 141.559 236.251C141.037 235.956 140.458 235.775 139.861 235.72C47.9373 236.04 54.0893 236.1 53.7613 235.878C52.6584 240.497 19.6862 378.458 18.5485 383.386C26.9788 379.876 35.7654 377.291 44.7536 375.678C56.4853 373.549 68.4968 373.463 80.2576 375.426C93.9173 377.375 107.227 381.273 119.78 387.002C120.546 387.334 120.116 388.507 119.37 388.507C119.545 388.505 119.716 388.446 119.856 388.339C119.996 388.232 120.098 388.083 120.146 387.914C120.647 384.796 134.22 300.074 134.632 297.481C134.66 297.302 157.936 387.377 158.082 387.914C158.115 388.032 158.176 388.141 158.258 388.231C158.341 388.322 158.443 388.393 158.557 388.437C158.36 388.354 158.205 388.195 158.124 387.997C158.044 387.799 158.046 387.576 158.129 387.379C158.281 387.019 158.502 386.984 159.392 386.537C169.841 381.369 180.971 377.711 192.448 375.672C204.18 373.544 216.191 373.459 227.952 375.42C234.858 376.389 241.681 377.873 248.366 379.86C248.643 379.938 248.843 381.818 227.94 322.081ZM49.0299 279.043C48.0049 279.203 47.5806 277.651 48.6015 277.487C51.5523 277 54.3755 275.926 56.904 274.328C67.5414 267.672 73.1379 254.521 73.3655 242.282C73.3759 242.075 73.4654 241.88 73.6156 241.738C73.7657 241.595 73.965 241.515 74.1721 241.515C74.3793 241.515 74.5786 241.595 74.7287 241.738C74.8788 241.88 74.9684 242.075 74.9788 242.282C75.231 258.32 64.1753 276.659 49.0299 279.043ZM143.601 250.585C140.987 263.295 138.59 276.005 136.358 289.111C136.184 290.136 134.628 289.697 134.802 288.682C136.994 275.799 139.409 262.954 142.045 250.154C142.254 249.138 143.81 249.57 143.601 250.585ZM170.939 268.535L150.07 275.326C149.078 275.648 148.658 274.096 149.64 273.77L170.511 266.979C171.503 266.655 171.923 268.215 170.939 268.535ZM194.469 337.806L181.349 355.274C180.734 356.094 179.332 355.291 179.957 354.454C180.505 353.727 189.246 342.08 193.077 336.988C193.692 336.17 195.094 336.976 194.469 337.806Z" fill="#ECA451"/>
<path d="M310.733 154.229C229.936 56.6125 233.395 60.7207 233.19 60.5916C232.767 60.2533 240.088 58.2628 129.972 90.743C129.995 91.2985 130.073 93.9594 130.081 94.4781C139.672 94.6635 149.143 96.659 157.994 100.36C173.908 106.957 186.583 119.559 193.272 135.435C200.804 152.261 205.187 170.533 208.528 188.622C214.043 190.098 227.724 193.919 228.512 194.143L310.569 155.496C310.674 155.432 310.762 155.346 310.829 155.243C310.896 155.14 310.938 155.024 310.954 154.902C310.97 154.781 310.958 154.657 310.92 154.541C310.882 154.424 310.818 154.318 310.733 154.229ZM214.09 118.869C196.146 128.764 197.352 128.229 196.929 128.141C196.74 128.109 196.569 128.011 196.444 127.865C196.32 127.718 196.251 127.533 196.249 127.342C196.249 126.864 217.124 89.0066 217.241 88.8016C217.33 88.6475 217.467 88.5274 217.632 88.4602C217.797 88.393 217.979 88.3826 218.151 88.4306C247.222 99.6707 246.646 99.3776 246.839 99.6195C246.927 99.7036 246.996 99.8065 247.04 99.9206C247.084 100.035 247.101 100.157 247.092 100.279C247.082 100.401 247.045 100.519 246.984 100.625C246.923 100.731 246.839 100.821 246.738 100.89C246.531 101.052 243.725 102.53 214.09 118.869Z" fill="#C0C195"/>
<path d="M363.195 210.215H273.116C275.346 212.25 277.323 214.546 279.006 217.053C281.103 220.164 283.063 223.364 284.881 226.645C286.687 229.858 288 233.325 288.776 236.928C289.602 240.86 289.171 244.951 287.546 248.625C286.926 250.273 285.902 251.738 284.569 252.887C283.235 254.036 281.635 254.832 279.914 255.202C278.185 255.382 276.437 255.17 274.801 254.581C273.166 253.991 271.684 253.041 270.467 251.799C267.06 248.474 264.432 243.457 261.281 237.787C262.618 243.274 263.399 248.882 263.614 254.525C263.978 260.956 262.589 267.364 259.596 273.068C258.818 274.268 257.766 275.266 256.528 275.983C255.289 276.699 253.899 277.112 252.47 277.188C251.173 277.144 249.899 276.829 248.73 276.264C247.561 275.699 246.522 274.897 245.681 273.908C241.528 269.824 241.353 266.323 238.444 255.329C238.094 265.105 238.494 270.126 236.2 277.785C235.329 280.713 233.658 283.34 231.374 285.37C229.101 287.059 226.322 287.927 223.492 287.831C220.661 287.735 217.947 286.682 215.794 284.843C209.966 279.55 209.402 270.318 209.265 262.703C206.714 261.692 182.49 252.598 181.95 252.395C181.996 260.778 182.865 320.738 182.883 321.275C182.886 321.489 182.972 321.692 183.123 321.843C183.274 321.994 183.478 322.08 183.691 322.083H363.187C363.4 322.08 363.604 321.994 363.754 321.843C363.905 321.692 363.991 321.489 363.995 321.275V211.02C363.991 210.809 363.906 210.607 363.757 210.457C363.608 210.307 363.407 210.22 363.195 210.215ZM311.125 234.892C322.652 233.09 335.846 236.481 343.853 245.63C348.838 251.51 351.674 258.911 351.895 266.616C352.073 273.56 349.933 280.364 345.812 285.956C341.691 291.547 335.825 295.606 329.14 297.491H329.071L329.013 297.52C325.308 298.402 321.501 298.786 317.693 298.662C317.675 298.66 317.657 298.656 317.64 298.649C317.615 298.656 317.59 298.66 317.564 298.662C307.691 298.494 299.549 294.478 295.58 290.152C295.527 290.095 295.481 290.033 295.443 289.966C295.372 289.929 295.307 289.88 295.252 289.822C279.729 273.758 283.124 239.273 311.121 234.892H311.125ZM251.601 282.819H276.476C276.683 282.83 276.878 282.919 277.021 283.07C277.163 283.22 277.243 283.419 277.243 283.626C277.243 283.833 277.163 284.032 277.021 284.183C276.878 284.333 276.683 284.422 276.476 284.433H251.597C251.4 284.334 251.248 284.164 251.172 283.957C251.096 283.75 251.101 283.523 251.187 283.32C251.281 283.122 251.421 282.95 251.597 282.819H251.601ZM212.946 295.257H276.812C277.019 295.267 277.214 295.357 277.357 295.507C277.5 295.657 277.579 295.856 277.579 296.063C277.579 296.271 277.5 296.47 277.357 296.62C277.214 296.77 277.019 296.86 276.812 296.87H212.942C212.735 296.86 212.54 296.77 212.398 296.62C212.255 296.47 212.175 296.271 212.175 296.063C212.175 295.856 212.255 295.657 212.398 295.507C212.54 295.357 212.735 295.267 212.942 295.257H212.946Z" fill="#F7DA31"/>
<path d="M122.693 61.4768C121.317 59.1898 119.488 57.2078 117.319 55.6522C115.15 54.0966 112.687 53.0002 110.079 52.4302C104.771 51.1724 99.184 51.9819 94.4517 54.6944C89.7193 57.4068 86.1968 61.8189 84.5995 67.0344C82.8693 72.6432 83.3695 78.4939 77.5537 83.3626C70.8133 89.0001 61.6416 91.3453 47.0579 105.66C42.7337 109.905 38.962 114.678 35.8321 119.867C32.7675 124.911 30.8259 130.557 30.1392 136.419C29.9938 140.742 30.7229 145.05 32.2827 149.085C33.8425 153.12 36.2009 156.798 39.2166 159.899C32.2615 155.25 27.2925 148.172 25.2828 140.051C23.2731 131.93 24.3675 123.351 28.3516 115.995C30.8626 111.497 34.0477 107.412 37.796 103.879C45.3811 96.3032 54.3688 90.2768 64.2574 86.1363C71.049 83.4897 77.4901 81.4807 79.4704 73.6313C80.7865 68.4202 80.2166 64.1172 83.4967 59.5765C85.5227 56.8046 88.4549 54.829 91.7848 53.9923C91.9828 53.9283 92.1486 53.7904 92.2474 53.6073C92.3462 53.4241 92.3706 53.2099 92.3153 53.0092C92.2601 52.8086 92.1295 52.637 91.9508 52.5303C91.7722 52.4235 91.5592 52.3899 91.3563 52.4363C84.6323 54.1071 79.5955 59.5601 78.7837 68.4058C78.5608 71.0417 77.9143 73.6244 76.869 76.0544C74.6796 80.2528 70.0691 82.1757 65.883 83.7931C60.8352 85.5591 56.0207 87.9319 51.5453 90.8595C46.9527 93.888 42.6025 97.2691 38.534 100.972C34.5778 104.494 31.1136 108.533 28.2348 112.979C25.4993 117.274 23.7243 122.11 23.0313 127.155C22.3383 132.2 22.7437 137.335 24.2198 142.209C25.6959 147.082 28.2078 151.579 31.5835 155.392C34.9592 159.205 39.1189 162.243 43.7779 164.299C44.1288 153.331 47.0528 142.599 52.3141 132.969C57.2692 124.612 64.0287 117.468 72.0986 112.059C88.9809 100.614 108.898 94.4744 129.294 94.4285L129.345 94.4429C129.593 94.4429 129.839 94.4613 130.087 94.4675C129.896 83.4077 128.258 71.0442 122.693 61.4768ZM112.289 81.0482C110.892 82.5827 109.049 83.6414 107.02 84.0756C104.99 84.5098 102.876 84.2977 100.973 83.4692C99.1413 82.7112 97.6005 81.3869 96.5757 79.6901C95.551 77.9933 95.0963 76.0131 95.278 74.0392C95.5184 72.0338 96.3685 70.1504 97.7135 68.6436C99.0584 67.1367 100.833 66.0789 102.799 65.613C104.764 65.1472 106.825 65.2957 108.703 66.0386C110.582 66.7815 112.187 68.0829 113.302 69.767C114.349 71.5123 114.816 73.5452 114.634 75.5727C114.452 77.6001 113.631 79.5174 112.289 81.0482Z" fill="black"/>
<path d="M193.273 135.434C189.777 127.488 184.857 120.249 178.755 114.073C167.195 102.532 149.524 94.7828 129.35 94.4528C129.481 94.4578 129.609 94.4958 129.722 94.5631C129.835 94.6304 129.929 94.725 129.996 94.8382C132.997 100.634 130.877 105.422 127.087 106.771C125.609 107.13 124.065 107.111 122.596 106.717C121.128 106.323 119.782 105.566 118.682 104.516C116.282 102.355 114.274 99.796 112.745 96.9517C112.693 96.8536 112.66 96.7459 112.651 96.635C112.641 96.5241 112.654 96.4125 112.689 96.3068C112.724 96.2011 112.78 96.1036 112.854 96.0203C112.928 95.937 113.018 95.8696 113.118 95.8222C112.958 95.7694 112.788 95.7581 112.622 95.7894C108.49 96.527 104.403 97.5002 100.382 98.7045C100.579 98.6697 100.782 98.7082 100.952 98.8128C101.123 98.9174 101.25 99.0809 101.308 99.2723C101.388 99.5409 119.348 165.106 119.863 167.127L136.045 171.022C136.027 170.901 128.782 112.204 128.575 110.48C128.581 110.323 128.632 110.171 128.722 110.042C128.811 109.913 128.936 109.813 129.081 109.753C129.226 109.693 129.386 109.676 129.54 109.703C129.695 109.731 129.838 109.803 129.953 109.91C139.069 120.9 107.63 83.0404 173.255 162.023C173.379 162.15 173.458 162.314 173.481 162.491C173.503 162.667 173.468 162.846 173.38 163.001C170.959 166.486 166.215 174.144 164.024 177.732C196.695 185.559 208.527 188.628 208.527 188.628C205.182 170.498 200.797 152.242 193.273 135.434Z" fill="white"/>
<path d="M135.962 171C135.993 170.997 136.023 171.003 136.05 171.016C136.025 171.01 135.994 171.008 135.962 171Z" fill="#C0C195"/>
<path d="M119.992 167.154L129.268 169.388C123.549 168.007 121.084 167.404 119.992 167.154Z" fill="#C0C195"/>
<path d="M199.051 186.096C200.047 186.326 199.635 187.828 198.658 187.654C179.051 182.988 122.933 169.456 118.995 168.573C118.829 168.523 118.684 168.421 118.581 168.283C118.477 168.144 118.422 167.976 118.422 167.803C118.422 167.63 118.477 167.462 118.581 167.323C118.684 167.184 118.829 167.083 118.995 167.033C119.128 166.992 118.995 166.931 119.981 167.154L119.856 167.125C119.331 165.106 101.383 99.5389 101.301 99.2704C101.243 99.0789 101.116 98.9155 100.945 98.8109C100.775 98.7063 100.572 98.6678 100.374 98.7025H100.309C90.2726 101.678 80.7548 106.182 72.0906 112.056C43.4787 131.462 40.5862 161.174 45.4631 195.547C47.2922 208.987 49.9486 222.302 53.4171 235.415C53.4679 235.583 53.5703 235.73 53.7098 235.837C53.8493 235.943 54.0187 236.003 54.1941 236.007L139.862 235.712C140.458 235.767 141.037 235.948 141.559 236.243C142.584 236.653 171.198 248.25 171.507 248.338C171.396 248.298 171.294 248.235 171.209 248.152C171.125 248.069 171.059 247.969 171.017 247.858C170.974 247.748 170.957 247.629 170.965 247.511C170.972 247.393 171.006 247.278 171.063 247.174C171.063 247.174 199.447 189.643 200.669 187.148C200.76 186.996 200.898 186.878 201.062 186.811C201.226 186.744 201.407 186.732 201.579 186.777L199.051 186.096ZM136.625 222.192L147.367 227.932C148.285 228.422 147.467 229.816 146.547 229.326L135.805 223.586C134.886 223.097 135.706 221.703 136.625 222.192ZM168.734 247.202C143.297 236.738 117.857 226.283 92.4122 215.837C91.4631 215.446 91.8813 213.886 92.8407 214.282C97.2154 216.075 169.14 245.622 169.269 245.724C170.058 246.188 169.65 247.582 168.734 247.207V247.202Z" fill="#C0C195"/>
<path d="M218.151 88.4363C217.98 88.3883 217.797 88.3987 217.633 88.4659C217.468 88.5331 217.33 88.6532 217.241 88.8073C216.216 90.6134 196.374 126.806 196.313 127.03C196.456 126.669 198.488 124.654 224.051 97.7433C224.564 97.2021 224.596 97.0073 226.247 97.2943L246.308 99.3771C246.677 99.4243 250.658 101.005 218.151 88.4363Z" fill="#F7DA31"/>
<path d="M246.307 100.991C245.428 100.903 231.389 99.443 225.264 98.8075C205.451 119.67 197.704 127.92 197.409 128.061L197.443 128.049C252.439 97.7251 246.609 101.021 246.307 100.991Z" fill="#F7DA31"/>
<path d="M129.987 94.8383C129.92 94.7252 129.826 94.6306 129.713 94.5633C129.6 94.4959 129.472 94.458 129.341 94.4529L129.29 94.4386C123.909 94.4274 118.537 94.8718 113.232 95.767C113.187 95.767 113.16 95.808 113.121 95.8223C113.021 95.8697 112.931 95.9372 112.857 96.0205C112.783 96.1038 112.727 96.2013 112.692 96.3069C112.657 96.4126 112.644 96.5243 112.654 96.6352C112.663 96.746 112.695 96.8538 112.748 96.9519C114.249 99.8101 116.252 102.375 118.662 104.523C120.352 106.05 122.51 106.958 124.784 107.097C129.812 107.376 133.533 101.679 129.987 94.8383Z" fill="#2A4744"/>
<path d="M196.25 127.403C196.271 127.572 196.341 127.731 196.452 127.86C196.564 127.989 196.711 128.082 196.875 128.126C197.523 128.29 195.615 130.023 225.266 98.8115C247.092 101.077 246.502 101.083 246.74 100.9C246.874 100.797 246.974 100.655 247.027 100.494C247.08 100.332 247.084 100.159 247.038 99.9954C246.991 99.832 246.897 99.6863 246.767 99.5768C246.638 99.4674 246.478 99.3993 246.309 99.3814C244.343 99.1764 225.389 97.1797 224.956 97.1653C224.528 97.1838 224.315 97.4708 224.052 97.7475C194.559 128.797 196.25 126.819 196.25 127.403Z" fill="#2A4744"/>
<path d="M119.783 386.994C103.21 379.397 85.3413 375.029 67.1327 374.124C48.652 373.099 26.881 378.661 10.7577 386.992C10.613 387.087 10.502 387.225 10.4406 387.387C10.3793 387.549 10.3708 387.726 10.4163 387.893C10.4618 388.06 10.559 388.209 10.694 388.317C10.829 388.425 10.9948 388.488 11.1677 388.497H119.377C120.125 388.499 120.55 387.326 119.783 386.994Z" fill="black"/>
<path d="M267.484 386.994C254.928 381.27 241.619 377.372 227.96 375.417C216.199 373.456 204.187 373.541 192.456 375.67C180.632 377.763 169.178 381.579 158.461 386.994C158.337 387.074 158.237 387.185 158.171 387.317C158.106 387.449 158.077 387.596 158.087 387.742C158.098 387.889 158.148 388.03 158.232 388.151C158.316 388.272 158.431 388.368 158.565 388.429C158.77 388.54 156.271 388.498 267.076 388.498C267.82 388.498 268.248 387.33 267.484 386.994Z" fill="black"/>
<path d="M317.541 174.379L309.507 189.139C309.011 190.051 310.403 190.867 310.901 189.959C313.244 185.654 318.601 175.814 318.933 175.199C319.431 174.281 318.037 173.465 317.541 174.379Z" fill="black"/>
<path d="M398.605 213.581L377.77 218.31C376.758 218.54 377.186 220.096 378.199 219.866L399.035 215.137C400.046 214.907 399.617 213.351 398.605 213.581Z" fill="black"/>
<path d="M399.038 291.944C399.038 291.944 379.452 286.45 378.608 286.233C378.405 286.186 378.192 286.22 378.013 286.327C377.834 286.433 377.704 286.605 377.649 286.806C377.593 287.006 377.618 287.22 377.717 287.404C377.815 287.587 377.981 287.725 378.179 287.789C378.179 287.789 397.765 293.281 398.607 293.5C398.811 293.549 399.025 293.516 399.206 293.41C399.386 293.304 399.518 293.131 399.574 292.93C399.63 292.728 399.605 292.512 399.505 292.329C399.405 292.145 399.238 292.007 399.038 291.944Z" fill="black"/>
<path d="M73.3662 242.283C73.1386 254.521 67.5421 267.672 56.9047 274.328C54.3762 275.926 51.553 277 48.6022 277.487C47.5772 277.651 48.0138 279.203 49.0306 279.043C64.297 276.641 75.2358 258.16 74.9795 242.283C74.9691 242.076 74.8795 241.881 74.7294 241.738C74.5793 241.595 74.38 241.516 74.1728 241.516C73.9657 241.516 73.7664 241.595 73.6163 241.738C73.4661 241.881 73.3766 242.076 73.3662 242.283Z" fill="#2A4744"/>
<path d="M339.037 337.185C338.832 336.16 337.278 336.599 337.481 337.614L342.226 361.303C342.431 362.328 343.985 361.89 343.782 360.873L339.037 337.185Z" fill="black"/>
<path d="M254.81 338.528C253.107 345.976 251.402 353.425 249.697 360.873C249.466 361.883 251.02 362.308 251.251 361.303L256.376 338.958C256.596 337.946 255.04 337.513 254.81 338.528Z" fill="black"/>
<path d="M181.356 355.274L194.476 337.806C195.101 336.976 193.699 336.166 193.084 336.986C189.259 342.079 180.517 353.725 179.964 354.452C179.339 355.291 180.739 356.094 181.356 355.274Z" fill="black"/>
<path d="M170.509 266.979L149.644 273.771C148.662 274.09 149.082 275.648 150.075 275.327L170.944 268.535C171.921 268.215 171.501 266.655 170.509 266.979Z" fill="black"/>
<path d="M343.849 245.63C335.854 236.487 322.652 233.09 311.121 234.892C285.219 238.945 279.631 269.568 293.167 287.426C293.846 288.336 294.6 289.187 295.422 289.97C295.182 289.565 295.092 289.089 295.168 288.625C295.05 282.825 296.018 277.054 298.021 271.61C299.45 268.749 301.451 266.212 303.9 264.156C306.348 262.099 309.192 260.566 312.257 259.652C312.462 256.608 311.961 253.426 311.98 250.427C311.838 248.436 312.173 246.439 312.958 244.603C313.742 242.767 314.953 241.144 316.49 239.87C317.894 238.802 319.662 238.329 321.412 238.553C323.162 238.777 324.754 239.68 325.844 241.067C328.146 244.046 328.593 246.834 330.424 257.811C341.639 259.437 345.879 268.471 348.07 279.828C348.283 280.449 348.379 281.104 348.353 281.759C350.782 277.079 351.995 271.862 351.881 266.589C351.656 258.895 348.824 251.504 343.849 245.63Z" fill="white"/>
<path d="M328.448 246.926C328.042 244.911 327.217 243.002 326.027 241.326C325.507 240.591 324.844 239.97 324.078 239.498C323.311 239.026 322.458 238.714 321.568 238.58C320.678 238.446 319.771 238.493 318.899 238.718C318.028 238.943 317.212 239.342 316.498 239.891C314.962 241.166 313.751 242.788 312.967 244.624C312.183 246.46 311.847 248.457 311.988 250.448C311.968 253.437 312.466 256.619 312.265 259.673C313.846 259.123 315.468 258.702 317.117 258.417L317.171 258.39C319.844 257.845 322.563 257.56 325.291 257.539L325.332 257.549C327.038 257.487 328.746 257.585 330.434 257.843C330.043 255.467 329.444 251.75 328.448 246.926ZM318.979 254.011C317.586 253.705 316.371 252.858 315.602 251.657C314.834 250.456 314.573 248.998 314.879 247.605C315.062 246.646 315.522 245.761 316.201 245.059C316.88 244.357 317.75 243.869 318.702 243.654C319.655 243.439 320.65 243.507 321.565 243.849C322.479 244.192 323.274 244.794 323.852 245.582C324.521 246.4 324.925 247.404 325.01 248.458C325.095 249.513 324.857 250.568 324.327 251.483C323.797 252.399 323.001 253.131 322.044 253.583C321.088 254.034 320.016 254.184 318.973 254.011H318.979Z" fill="black"/>
<path d="M348.087 279.849C346.221 270.251 342.472 260.635 332.939 258.296C330.449 257.717 327.894 257.463 325.338 257.539C325.457 257.548 325.572 257.582 325.676 257.64C325.781 257.698 325.871 257.778 325.941 257.875C326.011 257.971 326.059 258.082 326.082 258.199C326.105 258.315 326.102 258.436 326.074 258.552C325.484 261.163 323.7 263.537 321.154 263.459C318.786 263.386 317.454 261.409 316.609 259.372C316.556 259.176 316.58 258.968 316.674 258.789C316.769 258.609 316.928 258.473 317.12 258.406C315.469 258.687 313.846 259.107 312.267 259.663C309.203 260.576 306.358 262.108 303.909 264.165C301.461 266.222 299.46 268.759 298.032 271.621C296.027 277.064 295.06 282.835 295.178 288.636C295.132 288.904 295.143 289.179 295.21 289.443C295.278 289.707 295.4 289.954 295.57 290.167C299.539 294.494 307.683 298.508 317.554 298.676C317.58 298.674 317.605 298.67 317.63 298.664C317.513 298.654 317.399 298.618 317.297 298.559C317.194 298.501 317.106 298.421 317.037 298.325C316.969 298.23 316.921 298.12 316.899 298.005C316.876 297.889 316.879 297.77 316.906 297.655C318.546 287.28 318.167 282.816 319.366 274.193C319.652 272.073 320.046 269.969 320.545 267.889C320.6 267.726 320.704 267.584 320.844 267.483C320.983 267.383 321.151 267.329 321.323 267.329C321.495 267.329 321.663 267.383 321.803 267.483C321.942 267.584 322.047 267.726 322.101 267.889C322.877 269.973 323.523 272.103 324.034 274.267C324.623 276.694 329.547 296.446 329.569 296.542C329.617 296.737 329.592 296.943 329.499 297.12C329.406 297.298 329.251 297.435 329.063 297.506H329.133C332.992 296.474 336.608 294.686 339.77 292.245C342.933 289.805 345.579 286.761 347.556 283.289C347.882 282.822 348.157 282.321 348.376 281.795C348.402 281.134 348.304 280.474 348.087 279.849ZM304.547 295.507L304.09 284.415C304.047 283.373 305.66 283.39 305.703 284.415L306.16 295.507C306.199 296.548 304.586 296.542 304.543 295.507H304.547ZM339.413 290.694C339.413 290.694 337.312 283.689 336.41 280.267C336.361 280.064 336.394 279.849 336.5 279.669C336.606 279.489 336.778 279.357 336.98 279.301C337.182 279.245 337.397 279.27 337.581 279.37C337.765 279.47 337.903 279.637 337.966 279.837C338.991 283.306 339.992 286.782 340.969 290.265C341.016 290.468 340.982 290.681 340.875 290.86C340.769 291.038 340.597 291.169 340.396 291.224C340.196 291.279 339.981 291.255 339.798 291.156C339.615 291.057 339.477 290.892 339.413 290.694Z" fill="#C0C195"/>
<path d="M325.33 257.539L325.289 257.529C322.561 257.549 319.842 257.834 317.169 258.379L317.115 258.406C316.924 258.473 316.765 258.609 316.67 258.788C316.576 258.968 316.552 259.176 316.605 259.372C317.45 261.403 318.782 263.386 321.15 263.459C323.669 263.537 325.641 260.999 326.07 258.552C326.098 258.436 326.101 258.315 326.078 258.198C326.054 258.08 326.006 257.97 325.935 257.873C325.865 257.777 325.774 257.697 325.67 257.639C325.565 257.581 325.449 257.547 325.33 257.539Z" fill="white"/>
<path d="M251.599 284.433H276.474C276.681 284.422 276.876 284.333 277.018 284.183C277.161 284.032 277.241 283.833 277.241 283.626C277.241 283.419 277.161 283.22 277.018 283.069C276.876 282.919 276.681 282.83 276.474 282.819H251.599C251.392 282.83 251.197 282.919 251.054 283.069C250.912 283.22 250.832 283.419 250.832 283.626C250.832 283.833 250.912 284.032 251.054 284.183C251.197 284.333 251.392 284.422 251.599 284.433Z" fill="black"/>
<path d="M329.564 296.532C327.981 289.786 327.104 287.09 325.761 281.545C324.833 276.916 323.608 272.351 322.096 267.879C322.041 267.716 321.937 267.574 321.797 267.473C321.658 267.373 321.49 267.318 321.318 267.318C321.146 267.318 320.978 267.373 320.838 267.473C320.699 267.574 320.594 267.716 320.54 267.879C320.041 269.959 319.647 272.063 319.361 274.183C318.154 282.879 318.529 287.315 316.901 297.645C316.874 297.76 316.871 297.879 316.894 297.995C316.916 298.11 316.963 298.219 317.032 298.315C317.101 298.411 317.189 298.491 317.292 298.549C317.394 298.608 317.508 298.643 317.625 298.654C321.45 298.804 325.277 298.424 328.998 297.524C329.2 297.46 329.37 297.323 329.475 297.139C329.58 296.955 329.612 296.738 329.564 296.532Z" fill="black"/>
<path d="M276.81 295.257H212.945C212.738 295.267 212.543 295.357 212.4 295.507C212.257 295.657 212.177 295.856 212.177 296.063C212.177 296.27 212.257 296.47 212.4 296.62C212.543 296.77 212.738 296.86 212.945 296.87H276.81C276.92 296.876 277.029 296.859 277.132 296.821C277.234 296.783 277.328 296.724 277.407 296.649C277.487 296.573 277.55 296.482 277.593 296.382C277.636 296.281 277.659 296.173 277.659 296.063C277.659 295.954 277.636 295.845 277.593 295.745C277.55 295.644 277.487 295.553 277.407 295.478C277.328 295.403 277.234 295.344 277.132 295.306C277.029 295.268 276.92 295.251 276.81 295.257Z" fill="black"/>
<path d="M230.619 236.71C229.975 235.89 228.839 237.047 229.479 237.852L234.686 244.412C235.33 245.232 236.465 244.078 235.826 243.273L230.619 236.71Z" fill="#FF4848"/>
<path d="M253.582 220.395C252.918 219.595 251.782 220.743 252.442 221.537L257.315 227.39C257.981 228.189 259.117 227.043 258.457 226.25L253.582 220.395Z" fill="#FF4848"/>
<path d="M92.8399 214.278C91.8805 213.884 91.4623 215.442 92.4115 215.834L168.733 247.199C169.651 247.574 170.059 246.174 169.268 245.713C169.145 245.624 92.9855 214.337 92.8399 214.278Z" fill="#2A4744"/>
<path d="M147.367 227.93L136.625 222.191C135.708 221.701 134.892 223.093 135.805 223.582L146.547 229.322C147.469 229.804 148.285 228.42 147.367 227.93Z" fill="#2A4744"/>
<path d="M304.084 284.415L304.541 295.507C304.584 296.532 306.198 296.549 306.154 295.507C306.154 295.302 305.841 287.922 305.697 284.415C305.65 283.379 304.041 283.373 304.084 284.415Z" fill="black"/>
<path d="M336.4 280.267C337.304 283.688 339.403 290.693 339.403 290.693C339.467 290.891 339.605 291.057 339.788 291.156C339.972 291.254 340.186 291.279 340.386 291.223C340.587 291.168 340.759 291.038 340.865 290.859C340.972 290.68 341.006 290.467 340.959 290.265C340.873 289.937 338.897 282.979 337.956 279.836C337.893 279.636 337.755 279.469 337.571 279.369C337.388 279.269 337.172 279.244 336.97 279.3C336.768 279.356 336.596 279.488 336.49 279.668C336.384 279.849 336.351 280.063 336.4 280.267Z" fill="black"/>
<path d="M267.247 96.5767C268.576 91.578 270.354 86.7099 272.561 82.0319C272.999 81.0971 271.611 80.2771 271.167 81.2119C268.806 86.1836 266.919 91.3671 265.533 96.6935C265.488 96.865 265.5 97.0463 265.567 97.2104C265.634 97.3745 265.752 97.5125 265.904 97.6037C274.891 103.239 281.583 111.885 284.785 121.999C285.094 122.985 286.654 122.565 286.341 121.57C283.092 111.264 276.337 102.421 267.247 96.5767Z" fill="#FF4848"/>
<path d="M299.088 59.6071C301.138 56.8827 316.55 36.3335 317.3 35.3331C317.915 34.5028 316.524 33.6931 315.906 34.5131L297.698 58.7933C297.075 59.6236 298.473 60.4292 299.088 59.6071Z" fill="black"/>
<path d="M302.48 63.9307C305.403 62.3153 327.174 49.9907 328.22 49.3757C328.405 49.267 328.539 49.0892 328.593 48.8816C328.646 48.674 328.616 48.4536 328.507 48.2687C328.398 48.0838 328.22 47.9498 328.013 47.8959C327.805 47.8421 327.585 47.873 327.4 47.9817C324.475 49.5971 302.704 61.9217 301.658 62.5367C301.473 62.6454 301.339 62.8232 301.285 63.0308C301.231 63.2384 301.262 63.4588 301.371 63.6437C301.48 63.8286 301.657 63.9626 301.865 64.0165C302.073 64.0703 302.293 64.0394 302.478 63.9307H302.48Z" fill="black"/>
<path d="M142.044 250.154C139.409 262.954 136.994 275.799 134.801 288.682C134.627 289.707 136.183 290.134 136.357 289.111C138.552 276.228 140.966 263.385 143.6 250.585C143.809 249.57 142.253 249.138 142.044 250.154Z" fill="#2A4744"/>
<path d="M306.631 22.4407C306.943 21.4485 305.385 21.0242 305.075 22.0123L294.692 55.1587C294.382 56.1509 295.938 56.5773 296.248 55.5872L306.631 22.4407Z" fill="black"/>
<path d="M199.052 186.096C197.504 185.742 181.368 181.884 164.025 177.726C166.356 173.942 170.878 166.595 173.381 162.995C173.469 162.84 173.505 162.661 173.482 162.485C173.46 162.309 173.38 162.144 173.256 162.017L129.967 109.904C129.81 109.756 129.602 109.676 129.387 109.68C129.172 109.684 128.967 109.773 128.817 109.927C128.425 110.337 128.083 106.427 136.059 171.017C126.357 168.688 119.475 167.027 119.436 167.017C119.296 166.986 119.15 166.991 119.012 167.034C118.875 167.077 118.752 167.155 118.654 167.26C118.556 167.366 118.488 167.495 118.456 167.635C118.424 167.775 118.43 167.921 118.472 168.058C118.504 168.186 118.571 168.302 118.666 168.393C118.76 168.484 118.879 168.546 119.007 168.573C123.29 169.534 198.465 187.65 198.67 187.654C199.65 187.851 200.056 186.326 199.052 186.096Z" fill="#2A4744"/>
<path d="M11.1712 388.633H119.462C119.652 388.612 119.832 388.536 119.978 388.413C120.124 388.289 120.23 388.126 120.282 387.942L134.688 298.012C152.902 368.416 156.899 384.047 157.869 387.45C158.199 388.618 158.414 388.586 159.099 388.6C161.436 388.651 266.88 388.629 267.087 388.629C267.954 388.629 268.456 387.263 267.563 386.874C261.377 384.139 255.034 381.775 248.567 379.795C248.055 378.2 244.605 369.26 228.141 322.209H363.207C363.456 322.205 363.693 322.105 363.869 321.929C364.044 321.753 364.145 321.516 364.148 321.268V211.021C364.145 210.772 364.044 210.535 363.869 210.359C363.693 210.184 363.456 210.083 363.207 210.08H273.167C270.792 207.89 268.111 206.059 265.207 204.643C260.638 202.454 261.544 203.208 228.922 194.104L310.651 155.613C310.759 155.548 310.852 155.463 310.926 155.362C311 155.261 311.054 155.147 311.084 155.025C311.113 154.903 311.119 154.777 311.099 154.653C311.08 154.529 311.037 154.41 310.971 154.303C310.951 154.268 302.119 143.588 290.418 129.447L308.497 124.997C311.741 124.395 314.924 123.503 318.009 122.332C322.314 120.692 324.694 115.144 321.519 112C320.212 110.952 318.618 110.325 316.947 110.202C313.871 109.745 310.777 109.425 307.673 109.242C309.726 108.503 311.74 107.659 313.706 106.713C317.102 105.336 320.187 103.291 322.777 100.7C324.872 98.2953 325.983 94.8739 323.696 92.1863C321.613 89.7263 317.923 89.5029 314.954 89.345C308.792 89.017 310.832 90.165 316.478 86.7169C320.129 84.4865 323.935 80.4829 322.507 75.8519C321.031 71.0672 315.61 68.9906 310.738 69.5215C307.212 69.9049 308.741 69.6794 274.588 76.512C277.849 68.8163 277.651 69.5605 278.411 67.3916C282.737 55.0916 273.415 47.8694 265.328 53.7939C263.369 55.2297 261.627 56.9406 260.156 58.8738C258.597 60.8792 257.17 62.9842 255.886 65.1755C253.279 69.7656 250.979 74.5231 249 79.4169C241.005 69.7819 235.06 62.6069 233.59 60.8582C233.049 60.2145 233.203 60.2432 232.323 60.4626C229.023 61.258 212.748 66.1657 130.104 90.5443C129.614 80.5321 127.753 69.8844 122.822 61.4097C117.437 52.1519 104.372 48.8001 94.4442 54.5442C89.6746 57.294 86.1181 61.7422 84.4853 67C82.7592 72.5945 83.2553 78.4411 77.4723 83.2688C70.8528 88.8038 61.4228 91.3868 46.9785 105.565C42.6461 109.818 38.8669 114.601 35.7302 119.8C32.6542 124.865 30.7068 130.533 30.0209 136.419C29.7103 144.784 32.6953 152.936 38.3337 159.123C31.7232 154.38 27.0736 147.386 25.2595 139.455C23.4455 131.524 24.592 123.203 28.4834 116.059C30.9884 111.567 34.1689 107.488 37.9134 103.964C58.6676 84.1462 69.3358 86.9486 76.1664 79.9376C82.1667 73.7876 78.7412 66.3932 83.6325 59.6262C85.6438 56.8918 88.5459 54.9445 91.8386 54.1199C92.0792 54.0535 92.2836 53.8943 92.4068 53.6773C92.53 53.4603 92.562 53.2032 92.4957 52.9626C92.4293 52.7221 92.2702 52.5177 92.0531 52.3945C91.8361 52.2712 91.579 52.2393 91.3384 52.3056C84.5734 53.9846 79.4874 59.4806 78.6715 68.3694C78.4457 70.998 77.7978 73.573 76.7527 75.9954C74.5797 80.161 70.002 82.0675 65.8467 83.6727C60.7887 85.4427 55.964 87.8196 51.4782 90.7513C46.8788 93.7877 42.5218 97.1763 38.4464 100.887C34.4832 104.418 31.0123 108.466 28.1267 112.922C25.4147 117.239 23.6586 122.086 22.9765 127.138C22.2943 132.19 22.702 137.33 24.172 142.211C25.6421 147.092 28.1404 151.602 31.499 155.437C34.8575 159.272 38.9984 162.344 43.6432 164.445C43.1778 174.843 43.7429 185.261 45.3303 195.547C46.972 207.499 49.2473 219.355 52.1465 231.066C53.2925 235.6 53.2843 235.67 53.6143 235.932C52.5217 240.516 19.6172 378.182 18.4487 383.272C15.8207 384.371 13.2377 385.575 10.7058 386.88C10.534 386.988 10.4012 387.147 10.3268 387.336C10.2523 387.525 10.2403 387.732 10.2923 387.928C10.3443 388.124 10.4577 388.298 10.6158 388.425C10.774 388.552 10.9686 388.624 11.1712 388.633ZM262.413 386.751H162.988C178.58 379.543 197.684 374.92 214.832 375.886C231.208 376.684 247.314 380.362 262.413 386.751ZM362.248 211.962V320.333H184.611C184.041 307.756 183.918 281.496 183.763 253.21C194.915 257.474 197.879 258.322 209.144 262.785C208.963 268.154 209.755 273.512 211.483 278.599C213.631 283.956 217.325 287.496 223.08 287.92C226.091 288.171 229.088 287.291 231.485 285.45C233.783 283.405 235.465 280.76 236.343 277.812C238.598 270.315 238.282 265.067 238.557 256.244C241.118 265.795 241.374 269.835 245.601 273.997C246.454 274.999 247.507 275.813 248.692 276.386C249.877 276.959 251.169 277.278 252.485 277.324C253.937 277.247 255.35 276.827 256.609 276.1C257.868 275.372 258.937 274.356 259.727 273.136C262.732 267.412 264.128 260.98 263.764 254.526C263.566 249.167 262.845 243.841 261.611 238.622C263.919 243.424 266.872 247.89 270.387 251.894C271.621 253.152 273.123 254.115 274.781 254.71C276.439 255.306 278.211 255.519 279.963 255.334C281.701 254.959 283.317 254.155 284.665 252.995C286.012 251.835 287.048 250.356 287.677 248.694C290.957 241.367 288.887 233.604 285.012 226.578C283.196 223.296 281.236 220.096 279.139 216.986C277.936 215.202 276.586 213.521 275.102 211.962H362.248ZM242.391 199.842C256.564 203.737 257.311 203.546 261.634 205.121C272.228 208.977 277.099 216.55 282.673 226.258C284.731 229.711 286.223 233.47 287.093 237.394C287.726 240.531 287.497 243.782 286.429 246.799C285.982 248.334 285.17 249.737 284.061 250.887C282.952 252.038 281.58 252.902 280.063 253.404C278.507 253.635 276.917 253.482 275.432 252.959C273.948 252.437 272.613 251.56 271.544 250.405C266.714 245.235 265.242 240.565 260.094 232.181C259.976 231.99 259.792 231.847 259.578 231.779C259.364 231.711 259.132 231.722 258.925 231.809C258.717 231.897 258.548 232.055 258.447 232.256C258.346 232.458 258.321 232.688 258.374 232.906C261.244 244.866 264.18 258.003 259.291 269.86C258.864 271.144 258.134 272.306 257.162 273.248C256.191 274.189 255.006 274.882 253.709 275.268C252.547 275.48 251.35 275.389 250.233 275.005C249.116 274.62 248.116 273.955 247.331 273.072C245.934 271.781 244.792 270.238 243.965 268.525C241.829 263.048 240.747 255.29 238.709 250.828C238.613 250.672 238.474 250.547 238.308 250.468C238.143 250.389 237.958 250.36 237.777 250.384C237.595 250.407 237.424 250.483 237.284 250.601C237.145 250.72 237.042 250.876 236.989 251.051C236.263 257.014 237.038 265.659 235.501 273.478C234.449 278.839 231.85 285.106 225.702 285.967C223.214 286.328 220.676 285.859 218.481 284.632C211.61 280.122 211.202 270.266 211.013 262.14C211.007 261.935 210.937 261.738 210.814 261.575C210.69 261.413 210.518 261.293 210.322 261.233C197.666 256.197 185.517 252.043 173.053 247.088C202.508 187.355 201.944 188.6 201.909 188.672C215.468 192.15 228.893 196.13 242.391 199.842ZM263.916 57.3999C272.175 48.9129 280.1 55.8665 276.964 65.7352C276.212 67.9645 275.338 70.1504 274.344 72.2829C273.604 73.9434 272.948 75.6408 272.212 77.3033C272.124 77.4655 272.085 77.6497 272.1 77.8335C272.115 78.0174 272.182 78.1931 272.294 78.3394C272.407 78.4857 272.559 78.5964 272.733 78.6581C272.906 78.7198 273.094 78.7299 273.274 78.6871C284.368 76.2537 295.539 74.1771 306.689 72.002C311.057 71.1554 316.812 70.5158 319.827 74.6404C322.406 78.1684 319.885 82.2725 316.369 84.5296C311.532 87.4447 306.168 89.3791 300.584 90.2224C299.389 90.4274 299.901 92.2355 301.086 92.0367C306.59 91.1021 312.194 90.9077 317.749 91.4586C319.053 91.5949 320.313 92.0147 321.439 92.6886C321.956 93.0093 322.382 93.457 322.678 93.9892C322.973 94.5213 323.127 95.1201 323.126 95.7287C322.728 100.144 316.976 103.014 313.196 104.872C309.583 106.6 305.824 108.007 301.964 109.074C301.754 109.144 301.575 109.284 301.458 109.472C301.341 109.659 301.293 109.882 301.323 110.101C301.352 110.319 301.458 110.521 301.62 110.671C301.783 110.82 301.993 110.908 302.214 110.919C306.975 110.972 311.729 111.337 316.443 112.012C317.757 112.081 319.026 112.512 320.11 113.258C321.994 115.019 321.457 119.203 316.072 121.081C313.647 121.924 315.69 121.286 289.083 127.834C282.038 119.328 250.355 80.9749 250.355 80.9749C254.334 71.6884 258.046 63.4289 263.916 57.3999ZM232.436 62.3506C234.896 65.319 307.81 153.588 308.606 154.5L226.146 193.333C221.809 192.114 213.026 189.723 208.703 188.551C205.364 170.511 200.913 152.167 193.392 135.368C189.89 127.41 184.961 120.162 178.849 113.98C166.223 101.372 148.175 94.837 130.217 94.3368C130.206 93.7218 130.19 93.1068 130.172 92.4918C175.671 79.0684 227.622 63.8963 232.436 62.3506ZM131.371 101.832C131.692 99.9493 131.479 98.0145 130.756 96.2474C138.941 96.4964 147.032 98.075 154.71 100.921C162.566 103.777 169.78 108.157 175.936 113.811C182.093 119.465 187.07 126.28 190.583 133.865C198.467 150.3 203.207 169.685 206.594 187.739C196.979 185.484 191.052 184.067 186.903 183.063C177.637 180.824 177.223 180.613 164.353 177.46C166.161 174.531 170.733 167.044 173.5 163.067C173.602 162.887 173.643 162.678 173.616 162.473C173.59 162.267 173.497 162.076 173.353 161.927C171.918 160.191 130.075 109.841 130.051 109.814C129.918 109.687 129.75 109.601 129.569 109.567C129.389 109.533 129.202 109.553 129.031 109.623C128.861 109.693 128.715 109.812 128.611 109.964C128.507 110.116 128.45 110.294 128.445 110.478C128.65 112.178 135.825 170.261 135.889 170.83C135.872 170.715 135.857 170.6 135.842 170.484C133.792 169.982 120.983 166.78 120.026 166.589C119.206 163.43 101.841 100.091 101.841 100.091C105.307 99.0807 108.823 98.2521 112.376 97.6086C115.246 102.342 119.141 107.412 124.786 107.231C126.352 107.28 127.883 106.76 129.095 105.767C130.307 104.774 131.118 103.376 131.379 101.832H131.371ZM162.318 177.171L137.841 171.298C137.406 168.223 130.717 113.722 130.692 113.51C131.479 114.455 171.077 162.159 171.508 162.661C168.523 166.995 165.358 172.179 162.318 177.171ZM126.617 105.087C121.963 106.633 117.464 101.489 114.997 97.2621C119.534 96.5567 124.119 96.2003 128.71 96.1961C130.346 99.3962 130.053 103.613 126.617 105.087ZM43.84 161.73C40.4728 159.058 37.6769 155.736 35.6182 151.962C33.5595 148.188 32.28 144.039 31.8557 139.761C31.1218 129.252 38.471 117.319 45.6993 109.595C52.1738 102.656 59.5842 96.6529 67.7163 91.7599C73.1754 88.4615 77.4067 86.5714 81.1541 82.1434C85.4447 76.4956 84.1614 73.4288 87.0109 65.4974C88.2739 62.5459 90.2414 59.9491 92.741 57.9346C95.2407 55.9201 98.1962 54.5493 101.349 53.9423C104.501 53.3354 107.754 53.5107 110.823 54.453C113.892 55.3953 116.683 57.0758 118.952 59.3474C119.822 60.253 120.572 61.2657 121.186 62.3609C126.73 72.1599 128.124 83.1438 128.329 94.2999C119.849 94.4389 111.415 95.5644 103.196 97.6537C92.1 100.688 81.5747 105.515 72.0356 111.944C63.9457 117.364 57.1699 124.525 52.2039 132.901C47.3091 141.77 44.4518 151.619 43.84 161.73ZM47.8825 200.271C46.0912 189.535 45.2488 178.663 45.3651 167.78C45.7751 146.388 52.864 128.523 70.2234 115.585C79.1811 108.94 89.2222 103.898 99.9013 100.682C100.91 104.107 118.187 167.661 118.339 168.104C118.376 168.251 118.453 168.384 118.562 168.49C118.67 168.596 118.806 168.669 118.954 168.703C122.945 169.598 187.498 185.164 200.034 188.12C196.385 195.519 174.409 240.061 171.305 246.367C171.252 246.342 98.0235 216.275 92.8718 214.147C92.631 214.081 92.3741 214.114 92.1571 214.237C91.9401 214.36 91.7806 214.565 91.7136 214.805C91.6513 215.045 91.685 215.301 91.8074 215.517C91.9298 215.733 92.1314 215.893 92.3696 215.963C93.7677 216.537 116.765 225.803 137.142 234.032C133.439 234.032 55.732 234.169 54.9099 234.212C51.9893 223.024 49.6438 211.694 47.8825 200.266V200.271ZM55.5393 236.146C60.3383 236.191 77.5583 236.043 139.864 235.852C141.596 236.012 150.957 240.588 181.813 252.47C181.889 262.677 182.744 320.735 182.76 321.28C182.766 321.528 182.868 321.764 183.043 321.939C183.219 322.114 183.455 322.215 183.703 322.221H226.138C233.928 344.484 244.508 374.256 246.275 379.139C236.024 376.247 225.478 374.522 214.839 373.998C199.457 373.548 184.143 376.205 169.812 381.812C166.308 383.166 162.864 384.67 159.491 386.322L135.387 293.185C135.167 292.338 133.722 292.24 133.57 293.185C133.074 296.286 118.81 385.314 118.63 386.357C102.389 379.059 84.9246 374.867 67.1402 373.996C51.2296 373.546 35.3985 376.399 20.6463 382.376C23.3297 371.105 55.3937 236.679 55.5393 236.139V236.146ZM54.9243 376.079C66.4547 375.398 78.024 376.301 89.309 378.764C98.0053 380.63 106.508 383.306 114.704 386.759C97.388 386.759 19.0842 386.794 15.2794 386.759C27.7896 380.952 41.2044 377.337 54.9386 376.072L54.9243 376.079Z" fill="black"/>
<path d="M197.569 128.125C199.867 126.948 242.095 103.58 246.322 101.27C247.709 100.509 247.365 99.5867 246.322 99.1746C244.967 98.6355 239.163 96.4133 218.185 88.3096C217.985 88.2534 217.772 88.2655 217.579 88.3438C217.387 88.4221 217.226 88.5622 217.121 88.7422C216.08 90.5872 197.259 124.9 196.232 126.889C195.693 127.594 196.746 128.709 197.569 128.125ZM201.966 123.553C209.551 115.585 224.516 99.7732 225.321 98.9389L243.386 100.815C242.611 101.065 237.958 103.701 201.966 123.561V123.553ZM218.366 90.3781L239.415 98.5166C233.236 97.8688 225.237 97.0303 224.954 97.018C224.477 97.0324 224.245 97.3358 223.956 97.633C212.052 110.167 205.246 117.313 201.353 121.413C202.743 118.9 217.669 91.6696 218.37 90.3863L218.366 90.3781Z" fill="black"/>
<path d="M100.91 83.5842C102.838 84.4281 104.983 84.6464 107.042 84.2085C109.101 83.7705 110.971 82.6984 112.39 81.1427C113.752 79.5893 114.586 77.6432 114.77 75.5852C114.954 73.5273 114.48 71.464 113.415 69.6934C112.343 67.9805 110.761 66.6473 108.891 65.8818C107.021 65.1164 104.958 64.9575 102.993 65.4274C100.969 65.7841 99.1152 66.7849 97.7069 68.2808C96.2986 69.7767 95.4112 71.6876 95.1771 73.7287C94.943 75.7699 95.3746 77.832 96.4076 79.608C97.4406 81.3839 99.0197 82.7786 100.91 83.5842ZM98.6281 70.087C99.6233 68.9928 100.869 68.1564 102.259 67.6496C103.186 67.2529 104.182 67.0429 105.191 67.0315C106.2 67.0202 107.201 67.2076 108.137 67.5833C109.073 67.9589 109.926 68.5153 110.647 69.2206C111.368 69.926 111.942 70.7666 112.338 71.6942C112.893 73.0618 113.054 74.5574 112.803 76.0118C112.552 77.4661 111.899 78.8212 110.918 79.9236C109.936 81.026 108.666 81.8318 107.251 82.2497C105.835 82.6677 104.331 82.6812 102.908 82.2886C101.054 81.8285 99.4154 80.7423 98.2693 79.2136C97.3608 77.8482 96.9064 76.231 96.9708 74.5922C97.0352 72.9535 97.6152 71.3769 98.6281 70.087Z" fill="black"/>
<path d="M75.1176 242.281C75.1176 242.032 75.0184 241.792 74.842 241.616C74.6655 241.439 74.4262 241.34 74.1766 241.34C73.927 241.34 73.6877 241.439 73.5113 241.616C73.3348 241.792 73.2357 242.032 73.2357 242.281C72.9364 258.607 62.8873 274.995 48.5701 277.359C48.3297 277.426 48.1256 277.585 48.0023 277.802C47.879 278.019 47.8465 278.276 47.912 278.517C47.9823 278.755 48.1424 278.957 48.3585 279.079C48.5746 279.202 48.8298 279.235 49.0703 279.173C64.2546 276.785 75.3718 258.421 75.1176 242.281Z" fill="black"/>
<path d="M317.427 174.311L309.393 189.071C308.815 190.135 310.44 191.086 311.019 190.023L319.053 175.263C319.633 174.197 318.007 173.245 317.427 174.311Z" fill="black"/>
<path d="M398.574 213.45L377.74 218.181C376.559 218.448 377.057 220.264 378.24 219.996L399.074 215.266C400.255 214.998 399.749 213.183 398.574 213.45Z" fill="black"/>
<path d="M399.707 292.932C399.763 292.7 399.729 292.456 399.611 292.248C399.494 292.041 399.302 291.886 399.074 291.815C399.074 291.815 379.488 286.321 378.646 286.102C378.408 286.046 378.159 286.085 377.95 286.209C377.74 286.334 377.587 286.534 377.522 286.769C377.457 287.003 377.486 287.254 377.602 287.468C377.717 287.683 377.911 287.844 378.143 287.918C378.143 287.918 397.729 293.412 398.574 293.629C398.694 293.659 398.819 293.665 398.941 293.646C399.064 293.627 399.181 293.583 399.287 293.519C399.392 293.454 399.484 293.368 399.556 293.268C399.628 293.167 399.68 293.053 399.707 292.932Z" fill="black"/>
<path d="M343.914 360.839L339.169 337.149C338.933 335.964 337.119 336.467 337.354 337.649L342.1 361.339C342.348 362.526 344.152 362.03 343.914 360.839Z" fill="black"/>
<path d="M254.681 338.492C253.184 345.027 249.775 359.924 249.556 360.837C249.287 362.015 251.101 362.52 251.372 361.337L256.485 338.992C256.766 337.813 254.951 337.309 254.681 338.492Z" fill="black"/>
<path d="M180.194 355.675C180.411 355.797 180.666 355.831 180.907 355.768C181.148 355.705 181.354 355.551 181.484 355.339L194.604 337.871C194.666 337.764 194.707 337.646 194.723 337.524C194.74 337.401 194.733 337.277 194.701 337.157C194.67 337.037 194.615 336.925 194.54 336.827C194.465 336.728 194.372 336.646 194.265 336.583C194.049 336.462 193.793 336.429 193.553 336.492C193.313 336.555 193.107 336.709 192.978 336.922L179.858 354.388C179.733 354.603 179.698 354.859 179.761 355.101C179.824 355.342 179.98 355.548 180.194 355.675Z" fill="black"/>
<path d="M150.107 275.456L170.978 268.665C172.124 268.292 171.634 266.473 170.478 266.848L149.607 273.642C148.459 274.013 148.951 275.834 150.107 275.456Z" fill="black"/>
<path d="M293.077 287.52C300.096 296.801 311.861 299.712 323.489 298.574C331.439 297.929 338.836 294.251 344.149 288.302C349.462 282.353 352.284 274.588 352.029 266.616C351.807 258.876 348.958 251.442 343.95 245.536C335.99 236.447 322.792 232.929 311.09 234.763C285.084 238.841 279.492 269.614 293.077 287.52ZM318.78 296.917C320.227 288.24 319.963 280.407 321.541 271.668C322.493 275.011 323.47 279.474 324.081 282.008C325.215 286.694 326.529 291.335 327.65 296.024C324.734 296.652 321.757 296.952 318.774 296.917H318.78ZM340.76 289.033C339.891 285.953 339.003 282.878 338.095 279.808C338.062 279.689 338.006 279.578 337.93 279.48C337.854 279.383 337.76 279.301 337.653 279.24C337.545 279.179 337.427 279.14 337.304 279.124C337.181 279.109 337.057 279.118 336.938 279.151C336.819 279.184 336.707 279.24 336.61 279.316C336.512 279.392 336.431 279.486 336.37 279.594C336.309 279.701 336.269 279.82 336.254 279.942C336.239 280.065 336.248 280.189 336.281 280.308C337.064 283.281 338.778 289.043 339.192 290.429C336.365 292.748 333.107 294.484 329.606 295.538C328.544 290.979 327.179 286.489 326.146 281.922C325.066 277.09 323.779 272.306 322.29 267.584C322.222 267.379 322.092 267.2 321.917 267.074C321.742 266.947 321.532 266.879 321.316 266.879C321.1 266.879 320.89 266.947 320.715 267.074C320.54 267.2 320.41 267.379 320.342 267.584C317.773 277.133 318.47 287.17 316.769 296.87C313.186 296.716 309.645 296.025 306.267 294.82L305.836 284.412C305.787 283.205 303.905 283.199 303.954 284.412L304.35 294.009C301.601 292.789 299.089 291.095 296.927 289.004C296.697 283.452 297.559 277.909 299.465 272.688C301.54 268.178 305.202 264.588 309.754 262.605C311.975 261.57 314.302 260.781 316.695 260.253C317.144 261.201 317.808 262.032 318.632 262.68C319.118 263.043 319.673 263.302 320.264 263.441C320.854 263.58 321.466 263.595 322.063 263.486C322.659 263.377 323.227 263.146 323.73 262.808C324.233 262.47 324.661 262.031 324.987 261.52C325.492 260.841 325.871 260.078 326.107 259.265C330.034 258.999 333.944 259.987 337.273 262.086C340.111 264.266 342.286 267.193 343.554 270.54C344.963 274.035 345.981 277.676 346.59 281.395C345.063 284.233 343.095 286.811 340.76 289.033ZM314.006 258.972C314.2 253.205 312.472 246.951 315.972 242.72C317 241.453 318.443 240.589 320.045 240.28C320.851 240.198 321.664 240.315 322.415 240.619C323.165 240.924 323.829 241.408 324.35 242.029C325.571 243.503 326.388 245.269 326.72 247.154C327.374 249.938 328.315 255.776 328.6 257.482C323.687 257.219 318.764 257.722 314.006 258.972ZM324.016 259.316C323.866 259.932 323.538 260.49 323.072 260.919C322.606 261.349 322.024 261.63 321.398 261.729C320.825 261.707 320.27 261.519 319.802 261.189C319.333 260.859 318.969 260.4 318.755 259.868C320.495 259.569 322.252 259.388 324.016 259.325V259.316ZM294.947 245.296C307.577 231.422 332.015 234.431 342.617 246.867C346.296 251.118 348.744 256.293 349.698 261.833C350.652 267.373 350.076 273.069 348.031 278.306C347.214 273.845 345.601 269.568 343.267 265.68C341.926 263.443 340.076 261.554 337.868 260.167C335.659 258.781 333.154 257.935 330.557 257.699C329.975 254.083 329.315 250.479 328.579 246.891C328.167 244.852 327.329 242.924 326.119 241.231C325.588 240.486 324.913 239.856 324.133 239.378C323.354 238.899 322.486 238.583 321.582 238.447C320.677 238.311 319.755 238.359 318.869 238.587C317.983 238.815 317.153 239.22 316.427 239.776C314.869 241.062 313.64 242.701 312.844 244.557C312.047 246.413 311.705 248.433 311.847 250.448C311.828 253.398 312.32 256.547 312.136 259.562C311.726 259.706 311.302 259.862 310.892 260.024C301.65 263.582 297.388 269.562 295.916 277.934C295.388 280.869 295.065 283.836 294.951 286.815C284.619 273.523 286.242 254.858 294.947 245.296Z" fill="black"/>
<path d="M316.979 244.235C316.102 244.849 315.421 245.705 315.022 246.699C314.622 247.693 314.521 248.782 314.73 249.832C314.939 250.883 315.449 251.85 316.198 252.615C316.948 253.381 317.904 253.912 318.949 254.143C320.019 254.325 321.12 254.176 322.103 253.716C323.086 253.256 323.905 252.507 324.451 251.569C324.997 250.631 325.243 249.548 325.157 248.466C325.071 247.384 324.657 246.355 323.97 245.514C323.183 244.455 322.024 243.734 320.727 243.497C319.429 243.259 318.09 243.523 316.979 244.235ZM321.473 251.898C321.091 252.113 320.669 252.249 320.233 252.298C319.798 252.347 319.357 252.308 318.936 252.183C318.516 252.059 318.124 251.852 317.785 251.573C317.447 251.295 317.167 250.952 316.963 250.563C316.526 249.796 316.382 248.895 316.56 248.03C316.739 247.164 317.226 246.393 317.931 245.861C318.682 245.369 319.598 245.195 320.477 245.379C321.357 245.562 322.127 246.087 322.619 246.839C322.895 247.24 323.085 247.695 323.177 248.173C323.268 248.652 323.26 249.144 323.153 249.619C323.045 250.094 322.84 250.542 322.551 250.934C322.262 251.326 321.895 251.655 321.473 251.898Z" fill="black"/>
<path d="M251.6 284.567H276.475C276.724 284.567 276.964 284.468 277.14 284.291C277.317 284.115 277.416 283.875 277.416 283.626C277.416 283.376 277.317 283.137 277.14 282.961C276.964 282.784 276.724 282.685 276.475 282.685H251.6C251.351 282.685 251.111 282.784 250.935 282.961C250.758 283.137 250.659 283.376 250.659 283.626C250.659 283.875 250.758 284.115 250.935 284.291C251.111 284.468 251.351 284.567 251.6 284.567Z" fill="black"/>
<path d="M276.811 295.122H212.946C212.696 295.122 212.457 295.221 212.28 295.397C212.104 295.574 212.005 295.813 212.005 296.063C212.005 296.312 212.104 296.552 212.28 296.728C212.457 296.904 212.696 297.004 212.946 297.004H276.811C277.061 297.004 277.3 296.904 277.477 296.728C277.653 296.552 277.752 296.312 277.752 296.063C277.752 295.813 277.653 295.574 277.477 295.397C277.3 295.221 277.061 295.122 276.811 295.122Z" fill="black"/>
<path d="M234.597 244.515C234.773 244.692 235.012 244.791 235.262 244.791C235.511 244.791 235.751 244.692 235.927 244.515C236.1 244.337 236.197 244.099 236.197 243.85C236.197 243.602 236.1 243.363 235.927 243.185L230.722 236.625C230.545 236.449 230.306 236.35 230.056 236.35C229.806 236.35 229.567 236.449 229.39 236.625C229.218 236.804 229.122 237.042 229.122 237.29C229.122 237.538 229.218 237.777 229.39 237.955L234.597 244.515Z" fill="black"/>
<path d="M257.229 227.487C258.004 228.417 259.331 227.077 258.56 226.154L253.687 220.302C252.91 219.369 251.586 220.712 252.355 221.632L257.229 227.487Z" fill="black"/>
<path d="M135.743 223.702L146.487 229.442C147.555 230.012 148.506 228.388 147.436 227.816L136.694 222.076C135.626 221.506 134.673 223.13 135.743 223.702Z" fill="black"/>
<path d="M136.49 289.148C138.684 276.265 141.098 263.42 143.732 250.62C143.976 249.437 142.162 248.933 141.918 250.12C139.282 262.92 136.867 275.764 134.673 288.648C134.479 289.833 136.285 290.341 136.49 289.148Z" fill="black"/>
<path d="M267.404 96.5197C268.726 91.565 270.49 86.739 272.676 82.1C273.191 81.0094 271.569 80.05 271.051 81.1488C268.684 86.1309 266.794 91.3255 265.405 96.6632C265.354 96.8632 265.369 97.0743 265.446 97.2654C265.524 97.4565 265.661 97.6176 265.837 97.7252C274.796 103.343 281.466 111.964 284.654 122.046C285.017 123.196 286.836 122.704 286.471 121.544C283.239 111.229 276.492 102.373 267.404 96.5197Z" fill="black"/>
<path d="M297.925 60.0133C298.141 60.1349 298.397 60.1676 298.637 60.1045C298.877 60.0414 299.083 59.8874 299.212 59.675L317.422 35.401C317.548 35.1855 317.583 34.9291 317.52 34.6879C317.457 34.4466 317.301 34.2401 317.086 34.1136C316.869 33.9919 316.614 33.9592 316.374 34.0223C316.134 34.0854 315.927 34.2394 315.799 34.4518C313.749 37.1763 298.337 57.7255 297.586 58.7259C297.461 58.9415 297.426 59.1981 297.49 59.4394C297.553 59.6807 297.709 59.8871 297.925 60.0133Z" fill="black"/>
<path d="M302.553 64.0476C305.476 62.4302 327.247 50.1179 328.293 49.4926C328.398 49.4276 328.489 49.3422 328.561 49.2414C328.633 49.1405 328.685 49.0263 328.712 48.9055C328.739 48.7846 328.742 48.6595 328.721 48.5375C328.699 48.4155 328.653 48.2991 328.586 48.195C328.458 47.9934 328.26 47.8475 328.029 47.7867C327.799 47.7258 327.554 47.7545 327.343 47.867C327.343 47.867 302.647 61.7968 301.602 62.422C301.496 62.4872 301.405 62.5727 301.333 62.6736C301.261 62.7744 301.21 62.8886 301.183 63.0094C301.156 63.1302 301.153 63.2552 301.174 63.3771C301.196 63.4991 301.241 63.6155 301.308 63.7196C301.436 63.9217 301.635 64.068 301.866 64.1289C302.097 64.1898 302.342 64.1607 302.553 64.0476Z" fill="black"/>
<path d="M304.951 21.9779L294.568 55.1243C294.205 56.2805 296.021 56.7786 296.384 55.6245L306.765 22.4781C307.128 21.3198 305.312 20.8237 304.951 21.9779Z" fill="black"/>
</svg>
