<svg width="493" height="493" viewBox="0 0 493 493" fill="none" xmlns="http://www.w3.org/2000/svg">
<path d="M389.483 169.146C390.717 171.286 392.695 172.897 395.039 173.674C398.2 174.793 401.5 175.472 404.845 175.693C416.398 176.357 427.981 175.108 439.126 171.996C441.189 171.464 443.177 170.674 445.042 169.644C445.022 169.326 445.012 169.008 444.97 168.69C443.65 155.483 441.244 142.407 437.778 129.595C436.521 125.274 434.443 121.236 431.657 117.701C428.633 114.387 424.682 112.058 420.318 111.016C415.921 109.997 411.419 109.501 406.906 109.537C395.414 109.4 383.937 110.402 372.642 112.53C375.223 125.89 378.602 139.084 382.764 152.039L387.839 151.948C388.073 151.96 388.294 152.061 388.455 152.231C388.616 152.401 388.706 152.627 388.706 152.861C388.706 153.095 388.616 153.321 388.455 153.491C388.294 153.661 388.073 153.762 387.839 153.774C386.36 153.811 384.866 153.826 383.377 153.853C384.957 159.121 387 164.239 389.483 169.146ZM400.534 161.046H421.844C422.078 161.058 422.298 161.16 422.46 161.33C422.621 161.5 422.711 161.725 422.711 161.959C422.711 162.194 422.621 162.419 422.46 162.589C422.298 162.759 422.078 162.86 421.844 162.873H400.534C400.3 162.86 400.079 162.759 399.918 162.589C399.757 162.419 399.667 162.194 399.667 161.959C399.667 161.725 399.757 161.5 399.918 161.33C400.079 161.16 400.3 161.058 400.534 161.046Z" fill="white"/>
<path d="M370.872 112.873C369.32 113.063 367.822 113.559 366.462 114.33C365.103 115.102 363.909 116.135 362.949 117.369C358.796 122.841 359.198 128.737 360.891 135.307C361.532 137.796 364.192 149.187 365.022 152.357L380.895 152.071C376.757 139.222 373.409 126.131 370.872 112.873Z" fill="white"/>
<path d="M371.171 171.318C372.884 175.682 375.889 179.419 379.784 182.031C383.598 184.241 387.787 185.729 392.141 186.421C398.903 187.505 405.768 187.806 412.6 187.318C419.869 187.207 427.1 186.236 434.142 184.427C437.052 183.704 439.664 182.093 441.618 179.819C443.571 177.544 444.768 174.717 445.042 171.732C437.255 175.35 418.531 178.996 401.776 177.172C398.514 176.839 395.34 175.915 392.409 174.446C390 173.183 388.125 171.097 387.127 168.567C384.928 163.798 383.044 158.89 381.487 153.875L365.506 154.166C367.016 160.001 368.909 165.731 371.171 171.318Z" fill="white"/>
<path d="M228.753 92.9301C226.808 87.8878 223.053 83.7511 218.223 81.3274C212.464 78.8994 206.248 81.0143 200.825 83.2994C198.057 84.4678 194.746 86.1218 194.788 89.6147C195.175 94.3574 201.113 95.8758 205.028 95.7772C209.6 95.6712 213.517 93.3886 217.247 95.8709C217.274 95.2223 217.417 94.5838 217.668 93.9851C218.092 92.9115 218.804 91.9762 219.727 91.2832C220.65 90.5902 221.747 90.1665 222.896 90.0592C224.045 89.952 225.202 90.1653 226.237 90.6756C227.272 91.1859 228.146 91.9731 228.761 92.9499L228.753 92.9301Z" fill="black"/>
<path d="M301.878 124.778C300.272 123.525 298.336 122.768 296.307 122.599C295.456 122.574 294.61 122.749 293.839 123.112C293.069 123.474 292.394 124.013 291.87 124.684C291.526 125.289 291.305 125.956 291.219 126.646C291.133 127.336 291.184 128.037 291.369 128.707C291.555 129.378 291.87 130.005 292.299 130.553C292.727 131.101 293.259 131.56 293.864 131.902C291.594 132.289 289.378 133.445 289.181 135.878C289.139 136.458 289.217 137.04 289.41 137.588C289.603 138.136 289.907 138.639 290.303 139.065C290.698 139.491 291.177 139.831 291.71 140.064C292.242 140.297 292.817 140.417 293.398 140.419C292.841 140.95 292.474 141.651 292.354 142.412C292.235 143.173 292.37 143.952 292.738 144.629C294.061 146.988 297.522 146.64 299.958 146.197C299.861 144.561 300.239 142.933 301.047 141.507C301.855 140.082 303.059 138.922 304.512 138.166C305.966 137.41 307.607 137.091 309.238 137.248C310.869 137.404 312.419 138.029 313.703 139.048C311.133 133.304 307.045 128.37 301.878 124.778Z" fill="black"/>
<path d="M129.473 155.418C128.613 150.787 124.297 147.563 120.106 146.064C109.664 142.319 99.8685 146.426 85.8919 150.814C67.7545 156.508 47.8866 162.279 32.6134 169.055C27.4178 171.147 22.6579 174.19 18.5777 178.027C3.52644 193.209 17.3945 218.7 48.0172 214.635C55.4576 213.573 62.7295 211.554 69.6525 208.628C72.8499 201.722 77.6166 195.659 83.5724 190.922C94.1494 182.934 106.953 178.44 120.202 178.067C125.783 172.077 130.957 163.43 129.473 155.418ZM111.831 170.122C110.099 170.453 108.307 170.241 106.699 169.516C105.092 168.79 103.748 167.587 102.85 166.069C101.952 164.551 101.544 162.793 101.682 161.035C101.82 159.277 102.497 157.605 103.621 156.246C104.745 154.887 106.26 153.907 107.961 153.442C109.662 152.976 111.465 153.047 113.125 153.644C114.784 154.241 116.219 155.335 117.233 156.778C118.247 158.22 118.792 159.941 118.792 161.704C118.796 163.699 118.102 165.632 116.831 167.17C115.56 168.707 113.791 169.751 111.831 170.122Z" fill="black"/>
<path d="M281.108 380.657C272.341 376.223 262.868 373.349 253.115 372.165C253.115 372.769 252.849 381.579 252.829 382.188L280.647 382.361C280.844 382.355 281.035 382.285 281.19 382.163C281.346 382.04 281.457 381.871 281.509 381.68C281.561 381.489 281.55 381.286 281.477 381.102C281.405 380.918 281.275 380.762 281.108 380.657Z" fill="black"/>
<path d="M113.211 153.675C111.501 153.04 109.632 152.966 107.878 153.466C106.124 153.966 104.575 155.013 103.457 156.455C102.339 157.896 101.71 159.657 101.662 161.481C101.615 163.304 102.151 165.096 103.192 166.593C104.233 168.091 105.725 169.218 107.451 169.808C109.177 170.399 111.047 170.424 112.787 169.878C114.528 169.332 116.049 168.245 117.129 166.775C118.209 165.305 118.791 163.528 118.791 161.704C118.792 159.956 118.257 158.25 117.259 156.815C116.262 155.38 114.849 154.284 113.211 153.675Z" fill="#A8C1BE"/>
<path d="M264.64 316.784C264.726 309.193 263.468 301.647 260.925 294.493C259.706 291.422 257.889 288.623 255.58 286.259C253.271 283.894 250.516 282.011 247.474 280.719C241.043 278.064 233.81 278.057 226.958 277.857C216.464 277.546 206.745 277.746 195.739 277.386L195.854 278.035C195.911 278.268 195.876 278.513 195.758 278.722C195.639 278.93 195.445 279.086 195.216 279.156C195.216 279.156 175.249 284.663 169.56 286.184C179.874 286.307 188.026 286.053 194.762 289.692C199.43 292.269 203.401 295.944 206.331 300.399C213.319 310.819 214.892 323.615 216.464 335.738C216.788 337.345 216.466 339.015 215.569 340.388C214.672 341.76 213.272 342.725 211.67 343.074C209.763 343.165 207.897 342.506 206.471 341.237C202.875 338.129 202.813 333.12 200.195 329.425C199.362 328.249 198.591 327.746 197.804 328.944C197.179 329.949 196.895 331.129 196.996 332.309C197.292 337.31 201.243 341.937 197.718 346.904C197.1 347.763 196.209 348.388 195.191 348.676C194.173 348.965 193.087 348.9 192.11 348.492C190.138 347.668 189.253 345.354 188.381 343.562C183.593 333.795 184.55 331.219 182.812 330.99C182.534 330.954 182.251 331.014 182.011 331.16C181.771 331.306 181.589 331.53 181.493 331.794C180.896 335.494 180.604 339.237 180.621 342.985C180.832 344.894 180.565 346.825 179.842 348.605C179.345 349.512 178.524 350.198 177.543 350.526C176.563 350.854 175.494 350.8 174.552 350.375C173.566 349.848 172.707 349.111 172.035 348.217C171.364 347.323 170.896 346.292 170.665 345.198C168.278 337.411 168.939 334.106 166.228 331.503C164.795 330.128 162.889 329.356 160.903 329.346C158.192 329.319 155.345 329.462 152.596 329.592C125.18 330.924 102.897 331.111 84.3699 310.523C83.2014 310.992 82.0429 311.485 80.8671 311.933C80.6338 311.994 80.3859 311.962 80.1761 311.843C79.9662 311.724 79.8109 311.529 79.743 311.297C81.7365 317.273 84.2344 323.069 87.2095 328.621C89.9523 333.112 93.9593 336.694 98.7285 338.918C103.489 341.094 108.516 342.634 113.679 343.498C119.77 344.577 145.477 348.652 152.204 349.729C164.756 351.736 178.215 352.786 183.621 359.705C185.277 362.286 186.385 365.181 186.874 368.209C189.169 377.872 190.214 387.914 190.606 390.394C190.661 390.586 190.776 390.755 190.935 390.876C191.093 390.997 191.287 391.063 191.486 391.065H251.613C251.853 391.059 252.082 390.961 252.252 390.79C252.422 390.62 252.52 390.391 252.525 390.15C252.604 387.495 253.178 368.273 253.195 366.331H264.169C264.411 366.327 264.641 366.229 264.812 366.059C264.983 365.888 265.08 365.658 265.084 365.416C265.217 350.05 265.187 332.077 264.64 316.784ZM193.503 287.273C193.269 287.261 193.048 287.16 192.887 286.99C192.726 286.82 192.636 286.594 192.636 286.36C192.636 286.126 192.726 285.9 192.887 285.73C193.048 285.56 193.269 285.459 193.503 285.447C197.395 285.341 210.169 285.501 219.435 286.221C223.572 286.393 227.632 287.4 231.37 289.182C235.108 290.963 238.447 293.483 241.186 296.589C245.556 302.006 248.55 308.401 249.912 315.226C253.013 329.75 253.072 340.922 253.474 362.554C253.462 362.788 253.36 363.009 253.19 363.17C253.02 363.332 252.795 363.421 252.561 363.421C252.326 363.421 252.101 363.332 251.931 363.17C251.761 363.009 251.659 362.788 251.647 362.554C251.541 358.623 251.457 344.084 250.526 331.419C249.264 314.201 244.526 295.28 228.094 289.807C224.457 288.648 220.677 288.001 216.861 287.887C211.15 287.641 199.818 287.143 193.503 287.273Z" fill="#2A4744"/>
<path d="M264.63 408.03C252.742 402.163 239.664 399.11 226.408 399.107C213.152 399.104 200.073 402.151 188.183 408.012C188.083 408.052 187.992 408.111 187.917 408.187C187.841 408.263 187.782 408.354 187.743 408.454C187.704 408.554 187.686 408.661 187.691 408.768C187.695 408.876 187.722 408.981 187.769 409.077C187.809 409.268 187.916 409.438 188.069 409.558C188.223 409.678 188.414 409.74 188.609 409.733H264.169C264.367 409.727 264.557 409.658 264.712 409.535C264.868 409.412 264.979 409.243 265.031 409.052C265.083 408.861 265.072 408.659 264.999 408.475C264.927 408.29 264.797 408.134 264.63 408.03Z" fill="black"/>
<path d="M153.836 233.791C152.044 227.806 150.632 226.672 131.319 189.302C131.214 189.135 131.058 189.005 130.874 188.933C130.69 188.861 130.487 188.849 130.296 188.901C130.105 188.953 129.936 189.065 129.813 189.22C129.691 189.375 129.621 189.566 129.615 189.763C130.003 205.224 131.335 220.647 133.604 235.945C133.971 238.272 134.641 240.542 135.598 242.694C136.524 244.782 138.115 246.505 140.124 247.592C141.298 248.181 142.58 248.525 143.891 248.604C145.202 248.683 146.516 248.494 147.752 248.05C148.989 247.606 150.122 246.915 151.084 246.02C152.045 245.125 152.815 244.044 153.346 242.842C154.573 239.978 154.747 236.771 153.836 233.791Z" fill="black"/>
<path d="M216.464 335.733C214.891 323.611 213.318 310.815 206.33 300.395C203.4 295.94 199.43 292.265 194.762 289.687C189.161 286.663 182.878 286.416 176.642 286.276C174.28 286.224 156.084 286.098 152.756 286.135C152.514 286.139 152.284 286.237 152.113 286.407C151.943 286.578 151.845 286.808 151.841 287.05V328.674C151.847 328.902 151.936 329.121 152.093 329.287C152.249 329.454 152.462 329.556 152.689 329.576C153.069 329.647 156.591 329.305 160.91 329.347C162.896 329.357 164.801 330.129 166.234 331.503C168.946 334.116 168.271 337.382 170.671 345.199C170.903 346.293 171.371 347.323 172.042 348.218C172.714 349.112 173.573 349.848 174.559 350.376C175.501 350.801 176.57 350.855 177.55 350.527C178.531 350.198 179.352 349.512 179.849 348.606C181.36 344.881 180.112 344.154 181 335.517C181.066 334.265 181.231 333.02 181.493 331.794C181.588 331.53 181.771 331.307 182.011 331.16C182.251 331.014 182.533 330.954 182.812 330.991C184.512 331.205 183.733 334.077 188.38 343.562C189.253 345.349 190.147 347.664 192.11 348.492C193.086 348.9 194.172 348.965 195.19 348.677C196.209 348.389 197.1 347.764 197.717 346.905C201.233 341.95 197.289 337.264 196.995 332.31C196.894 331.13 197.178 329.95 197.804 328.945C198.59 327.747 199.362 328.25 200.195 329.426C202.813 333.123 202.874 338.129 206.471 341.238C207.896 342.507 209.763 343.166 211.669 343.074C213.272 342.725 214.674 341.76 215.571 340.386C216.468 339.013 216.789 337.341 216.464 335.733ZM198.058 318.922L193.64 310.243C193.108 309.198 194.683 308.271 195.218 309.321L199.633 318C200.158 319.05 198.59 319.975 198.058 318.927V318.922ZM180.14 323.029L175.863 314.298C175.345 313.245 176.923 312.326 177.438 313.376L181.717 322.107C182.232 323.162 180.657 324.089 180.14 323.034V323.029Z" fill="#A8C1BE"/>
<path d="M446.805 168.697C446.805 168.665 446.785 168.633 446.773 168.601C446.776 168.552 446.776 168.502 446.773 168.453C445.578 157.166 443.72 145.959 441.207 134.89C438.872 125.833 435.591 115.993 426.7 111.512C422.502 109.454 417.934 108.26 413.266 107.999C399.277 107.241 385.248 108.216 371.499 110.903C369.1 111.222 366.79 112.025 364.71 113.262C361.839 115.301 359.734 118.243 358.73 121.618C357.469 126.231 357.597 131.114 359.1 135.654C360.525 141.217 361.703 146.84 363.152 152.391L365.026 152.357C364.195 149.187 361.535 137.796 360.894 135.306C360.245 132.916 359.839 130.465 359.684 127.993C359.493 125.326 360.016 122.656 361.201 120.258C362.385 117.861 364.187 115.823 366.421 114.354C367.815 113.621 369.32 113.121 370.875 112.875C373.414 126.132 376.761 139.22 380.898 152.068L382.779 152.034C378.62 139.078 375.24 125.885 372.657 112.525C383.952 110.397 395.429 109.395 406.921 109.532C411.434 109.495 415.936 109.991 420.333 111.011C424.697 112.053 428.648 114.382 431.672 117.696C434.458 121.231 436.536 125.269 437.793 129.59C440.703 139.913 442.774 150.455 443.985 161.112C445.148 169.964 444.985 168.47 445.057 169.639C443.192 170.669 441.204 171.459 439.141 171.99C427.996 175.103 416.413 176.352 404.86 175.688C401.515 175.467 398.215 174.788 395.054 173.669C392.71 172.892 390.732 171.281 389.498 169.141C387.017 164.238 384.977 159.123 383.402 153.858L381.504 153.892C383.064 158.907 384.948 163.814 387.144 168.584C388.144 171.113 390.018 173.199 392.427 174.463C395.358 175.932 398.532 176.856 401.794 177.189C418.578 179.018 437.29 175.355 445.059 171.749C444.784 174.734 443.587 177.56 441.634 179.835C439.681 182.11 437.069 183.72 434.159 184.444C427.113 186.256 419.877 187.229 412.603 187.34C405.771 187.828 398.906 187.527 392.143 186.443C387.789 185.751 383.6 184.263 379.786 182.053C375.892 179.441 372.887 175.704 371.173 171.34C368.912 165.752 367.018 160.023 365.504 154.188L363.618 154.22C364.651 158.066 365.78 161.886 367.084 165.66C368.428 170.633 370.728 175.295 373.855 179.388C376.938 182.771 380.879 185.255 385.261 186.576C398.651 190.848 416.978 189.455 430.883 187.116C433.938 186.634 436.879 185.6 439.562 184.064C442.09 182.44 444.109 180.138 445.39 177.421C446.671 174.703 447.161 171.68 446.805 168.697Z" fill="#4C9790"/>
<path d="M263.034 241.898H229.167C223.722 242.122 218.365 240.473 213.989 237.224C209.613 233.976 206.484 229.326 205.123 224.049C205.071 223.974 205.034 223.891 205.012 223.802C208.113 239.26 208.508 245.987 213.965 253.382C217.539 258.37 222.194 262.485 227.582 265.42C232.97 268.355 238.952 270.034 245.081 270.332C252.792 270.859 260.537 270.157 268.028 268.251C267.902 267.556 263.275 243.48 263.034 241.898Z" fill="#2A4744"/>
<path d="M288.651 173.723C284.604 161.645 281.084 149.162 274.645 138.028C266.794 124.455 255.588 116.52 244.234 113.804C232.469 110.994 220.021 114.228 209.774 120.262C200.764 125.565 194.92 131.665 193.308 141.908C192.714 145.595 192.494 149.333 192.652 153.064L206.877 152.818C207.111 152.83 207.332 152.931 207.493 153.101C207.654 153.271 207.744 153.497 207.744 153.731C207.744 153.965 207.654 154.191 207.493 154.361C207.332 154.53 207.111 154.632 206.877 154.644C202.766 154.753 193.34 154.891 192.741 154.891C193.433 166.839 196.497 181.513 199.724 197.567C199.738 197.392 199.808 197.226 199.923 197.093C200.039 196.96 200.193 196.867 200.365 196.828C217.142 194.161 232.062 190.665 246.433 188.447C246.667 188.388 246.914 188.422 247.123 188.541C247.332 188.66 247.488 188.855 247.557 189.085C247.557 189.085 250.16 201.25 251.223 206.21C254.804 206.21 259.951 206.589 263.525 206.882C265.485 200.159 268.753 193.889 273.142 188.432C277.532 182.975 282.955 178.439 289.102 175.084C288.989 174.596 288.784 174.142 288.651 173.723ZM236.482 183.369C235.093 183.664 233.726 184.053 232.39 184.532C231.281 184.932 230.808 183.167 231.897 182.772C233.233 182.292 234.6 181.902 235.989 181.606C237.145 181.365 237.626 183.125 236.482 183.369ZM245.22 187.111L242.918 177.172C201.329 185.151 200.37 187.732 199.376 186.566C199.267 186.455 199.188 186.318 199.147 186.168C199.107 186.017 199.106 185.859 199.146 185.708C199.185 185.557 199.263 185.419 199.371 185.308C199.48 185.196 199.616 185.115 199.766 185.072C204.43 183.936 219.518 179.795 242.514 175.395C240.971 168.702 239.425 162.01 237.83 155.329C237.557 154.186 239.309 153.7 239.59 154.836C240.162 157.22 245.082 178.409 246.985 186.618C247.239 187.769 245.487 188.254 245.22 187.111ZM266.264 160.067C259.394 161.201 250.981 163.272 250.039 163.057C249.836 163.028 249.65 162.926 249.517 162.769C249.384 162.612 249.313 162.412 249.317 162.207C249.279 147.78 247.531 133.409 244.109 119.395C244.06 119.184 244.087 118.962 244.186 118.77C244.284 118.577 244.447 118.425 244.647 118.341C244.846 118.256 245.069 118.245 245.276 118.309C245.483 118.373 245.66 118.508 245.778 118.69C253.902 131.419 260.937 144.811 266.809 158.724C267.016 159.204 266.907 159.959 266.264 160.067Z" fill="#C0C195"/>
<path d="M266.809 158.724C260.934 144.813 253.898 131.421 245.778 118.689C245.661 118.507 245.483 118.373 245.276 118.309C245.069 118.245 244.846 118.256 244.647 118.34C244.448 118.425 244.284 118.577 244.186 118.769C244.087 118.962 244.06 119.184 244.109 119.394C247.528 133.406 249.276 147.774 249.318 162.197C249.314 162.424 249.401 162.643 249.559 162.806C249.717 162.969 249.933 163.063 250.161 163.067C251.169 163.161 260.706 160.974 266.264 160.057C266.908 159.961 267.016 159.204 266.809 158.724Z" fill="black"/>
<path d="M358.556 193.485C357.448 190.08 355.907 186.832 353.971 183.82C348.299 176.156 340.137 170.704 330.884 168.399C316.603 165.829 301.872 168.176 289.095 175.054C282.669 178.551 277.037 183.341 272.554 189.123C268.071 194.905 264.835 201.553 263.05 208.647C258.482 227.744 264.797 250.372 268.187 269.077C268.128 268.844 268.161 268.597 268.28 268.388C268.399 268.179 268.595 268.024 268.825 267.955L276.161 266.607C276.161 266.607 272.143 251.842 270.149 244.459C270.097 244.265 270.109 244.058 270.185 243.872C270.26 243.686 270.395 243.529 270.568 243.426L309.762 224.976C309.977 224.856 310.232 224.828 310.469 224.895C310.706 224.963 310.906 225.122 311.026 225.338C312.024 227.137 309.978 224.539 322.737 258.039C378.777 247.728 372.257 248.81 373.886 248.859C368.645 231.19 365.48 213.962 358.556 193.485Z" fill="#4C9790"/>
<path d="M345.84 210.319C345.707 210.072 329.325 182.745 325.627 174.68C325.295 173.839 323.887 174.226 323.924 175.141C324.676 193.404 323.648 213.136 323.712 214.758C323.892 215.368 324.207 215.929 324.634 216.4C329.91 224.161 335.652 231.595 341.83 238.659C342.409 239.32 343.309 238.723 343.39 238.013C343.9 233.517 345.697 214.206 345.855 212.643C346.072 211.883 346.067 211.077 345.84 210.319Z" fill="black"/>
<path d="M468.502 297.715C466.914 287.281 462.973 277.344 456.976 268.658C450.43 259.39 440.621 252.939 429.518 250.599C410.981 247.101 381.145 249.083 373.886 248.857C372.244 248.805 378.076 247.858 322.737 258.036C322.956 258.613 339.252 298.894 339.664 299.813C340.016 300.58 340.441 301.31 340.933 301.995C347.692 311.699 351.533 312.902 356.14 317.847C364.087 318.273 375.685 318.954 383.112 319.937C387.776 320.257 392.137 322.359 395.292 325.809C401.885 333.058 402.627 343.628 403.961 352.855L405.102 360.743C405.155 360.936 405.27 361.106 405.429 361.227C405.588 361.349 405.782 361.414 405.982 361.413C421.758 361.428 437.534 361.455 453.31 361.389C453.552 361.387 453.783 361.29 453.954 361.119C454.125 360.947 454.221 360.716 454.222 360.474C453.651 353.419 452.975 346.374 452.398 339.32C458.731 339.32 465.061 339.361 471.379 339.389C471.501 339.399 471.625 339.383 471.741 339.34C471.856 339.298 471.961 339.231 472.048 339.144C472.135 339.057 472.202 338.952 472.244 338.836C472.286 338.72 472.302 338.597 472.291 338.474C470.104 312.725 469.831 305.303 468.502 297.715ZM446.349 271.678L439.967 267.566C438.981 266.93 439.898 265.347 440.889 265.988L447.271 270.1C448.257 270.736 447.34 272.316 446.349 271.678ZM420.6 278.994L428.505 282.782C429.565 283.29 428.638 284.865 427.583 284.36L419.678 280.571C418.618 280.063 419.545 278.488 420.6 278.994ZM450.488 338.4C450.402 337.32 449.181 323.258 448.582 317.315C446.379 295.482 441.281 274.761 420.77 265.993C409.968 261.376 400.591 261.394 389.489 261.354C379.59 261.32 369.656 261.283 359.764 261.704C358.585 261.753 358.593 259.927 359.764 259.878C368.864 259.491 385.545 259.545 393.485 259.555C405.317 259.569 415.586 260.873 425.261 266.176C449.337 279.373 450.121 310.947 452.314 338.4C452.408 339.576 450.582 339.564 450.488 338.4Z" fill="#2A4744"/>
<path d="M276.162 266.604L268.826 267.952C268.596 268.021 268.401 268.176 268.282 268.385C268.163 268.594 268.129 268.841 268.188 269.074C269.912 280.753 273.66 292.041 279.266 302.43C281.572 306.428 284.767 309.843 288.603 312.409L276.162 266.604Z" fill="#2A4744"/>
<path d="M480.092 376.132C468.206 370.263 455.127 367.209 441.871 367.206C428.614 367.203 415.535 370.251 403.645 376.115C403.545 376.154 403.454 376.213 403.378 376.289C403.302 376.365 403.242 376.456 403.204 376.556C403.165 376.656 403.147 376.763 403.152 376.871C403.156 376.978 403.183 377.083 403.231 377.18C403.272 377.37 403.378 377.54 403.531 377.659C403.684 377.778 403.875 377.84 404.069 377.833H479.631C479.829 377.828 480.02 377.759 480.176 377.637C480.332 377.515 480.444 377.345 480.496 377.154C480.547 376.963 480.536 376.76 480.463 376.576C480.391 376.392 480.261 376.236 480.092 376.132Z" fill="black"/>
<path d="M425.26 266.176C415.454 260.802 405.209 259.567 393.483 259.555C386.024 259.555 368.994 259.483 359.762 259.877C358.591 259.927 358.584 261.753 359.762 261.704C369.654 261.283 379.588 261.32 389.488 261.354C400.733 261.393 409.989 261.386 420.768 265.993C441.27 274.756 446.375 295.465 448.581 317.314C449.18 323.258 450.4 337.32 450.486 338.4C450.58 339.566 452.409 339.576 452.313 338.4C450.07 310.59 449.215 279.307 425.26 266.176Z" fill="white"/>
<path d="M363.225 361.463H288.375C288.262 361.732 288.143 362.008 288.04 362.279C295.234 372.836 305.95 380.489 318.271 383.867C320.844 384.536 323.501 384.83 326.159 384.74C326.144 382.867 326.087 380.993 326.112 379.12C326.124 378.886 326.226 378.665 326.395 378.504C326.565 378.343 326.791 378.253 327.025 378.253C327.259 378.253 327.485 378.343 327.655 378.504C327.825 378.665 327.926 378.886 327.938 379.12C327.938 379.672 327.978 383.369 327.985 384.668C335.263 384.072 342.287 381.717 348.454 377.807C354.621 373.897 359.746 368.548 363.39 362.22C363.343 361.966 363.282 361.712 363.225 361.463Z" fill="#ECA451"/>
<path d="M365.239 362.461C365.233 362.592 365.198 362.72 365.135 362.835C361.33 369.499 355.959 375.135 349.487 379.258C343.016 383.381 335.637 385.867 327.99 386.499C328.005 388.437 328.047 390.377 328.02 392.314C328.008 392.548 327.906 392.769 327.736 392.93C327.566 393.091 327.341 393.181 327.106 393.181C326.872 393.181 326.647 393.091 326.477 392.93C326.307 392.769 326.205 392.548 326.193 392.314C326.193 391.762 326.141 386.551 326.141 386.551C322.62 386.615 319.112 386.107 315.754 385.047C303.831 381.021 293.511 373.283 286.304 362.966C286.199 362.868 286.126 362.741 286.095 362.601C286.095 370.437 286.423 410.06 286.435 411.425C286.499 410.979 285.422 412.056 302.561 397.104C303.444 396.335 304.74 397.621 303.853 398.395L287.998 412.229C287.886 412.322 287.754 412.388 287.613 412.422C287.471 412.457 287.324 412.459 287.181 412.428C287.039 412.398 286.906 412.335 286.791 412.246C286.676 412.156 286.583 412.042 286.519 411.911C286.585 412.081 286.701 412.228 286.851 412.332C287.001 412.437 287.179 412.493 287.362 412.495C289.174 412.51 363.669 412.742 364.27 412.759C364.433 412.767 364.595 412.723 364.732 412.635C364.869 412.546 364.976 412.418 365.037 412.266C364.972 412.389 364.88 412.495 364.767 412.576C364.654 412.657 364.524 412.71 364.387 412.732C364.249 412.754 364.109 412.743 363.977 412.701C363.844 412.659 363.724 412.587 363.624 412.49L348.985 398.393C348.137 397.577 349.428 396.285 350.276 397.101C363.392 409.734 365.022 411.196 365.184 411.595C365.172 394.592 365.276 365.949 365.239 362.461Z" fill="#ECA451"/>
<path d="M287.998 412.227C288.595 411.711 303.193 398.97 303.853 398.393C304.741 397.619 303.444 396.332 302.562 397.101C285.262 412.192 286.505 410.992 286.436 411.423C286.419 411.611 286.459 411.799 286.55 411.964C286.641 412.13 286.779 412.264 286.947 412.35C287.115 412.436 287.304 412.47 287.492 412.449C287.679 412.427 287.855 412.349 287.998 412.227Z" fill="black"/>
<path d="M350.279 397.112C349.431 396.296 348.137 397.588 348.987 398.404C353.266 402.525 363.077 411.981 363.627 412.501C364.44 413.27 365.633 412.104 365.049 411.401C364.465 410.699 361.775 408.185 350.279 397.112Z" fill="black"/>
<path d="M365.162 361.79C364.124 357.132 362.175 352.725 359.428 348.822C356.699 344.703 353.55 340.879 350.031 337.411C349.183 336.596 347.892 337.885 348.74 338.703C354.747 344.501 361.826 354.045 363.384 362.219C359.741 368.547 354.615 373.896 348.448 377.806C342.281 381.716 335.257 384.071 327.979 384.668C327.957 381.885 327.94 379.378 327.933 379.119C327.92 378.885 327.819 378.665 327.649 378.504C327.479 378.342 327.254 378.252 327.019 378.252C326.785 378.252 326.56 378.342 326.39 378.504C326.22 378.665 326.118 378.885 326.106 379.119C326.106 379.903 326.106 382.242 326.126 384.739C323.48 384.828 320.835 384.534 318.272 383.867C305.956 380.479 295.243 372.828 288.042 362.278C289.304 359.198 290.889 356.261 292.772 353.515C294.908 350.26 297.679 347.469 300.919 345.309C300.486 344.868 300.081 344.401 299.706 343.909C293.634 348.383 288.997 354.528 286.358 361.593C286.171 362.034 285.949 362.397 286.225 362.826C293.43 373.207 303.785 380.994 315.758 385.035C319.116 386.096 322.624 386.603 326.145 386.539C326.17 389.406 326.192 392.036 326.197 392.302C326.209 392.536 326.311 392.757 326.481 392.918C326.651 393.079 326.876 393.169 327.111 393.169C327.345 393.169 327.57 393.079 327.74 392.918C327.91 392.757 328.012 392.536 328.024 392.302C328.024 391.474 328.024 389.041 327.994 386.487C335.641 385.851 343.017 383.364 349.489 379.241C355.96 375.119 361.331 369.484 365.139 362.823C365.272 362.493 365.28 362.126 365.162 361.79Z" fill="black"/>
<path d="M419.676 280.572L427.581 284.36C428.636 284.853 429.553 283.29 428.503 282.783L420.598 278.994C419.543 278.489 418.616 280.064 419.676 280.572Z" fill="white"/>
<path d="M439.967 267.566L446.349 271.678C447.335 272.316 448.257 270.736 447.271 270.1L440.889 265.989C439.898 265.35 438.981 266.93 439.967 267.566Z" fill="white"/>
<path d="M140.013 356.74C132.216 355.719 100.957 350.947 93.099 349.784C86.69 348.832 79.5883 347.987 74.5252 343.535C69.8959 339.465 67.7144 333.428 65.9963 327.68C59.0746 303.824 53.84 279.511 50.3312 254.921C50.1661 253.762 48.4061 254.255 48.5712 255.414C51.8248 278.262 56.5727 300.873 62.7844 323.1C66.9429 337.974 70.2016 347.306 85.4304 350.348C90.7819 351.418 128.371 356.784 142.372 358.976C153.193 360.664 157.578 366.334 159.972 377.138C161.864 386.133 162.905 395.287 163.08 404.477C163.117 405.648 164.946 405.655 164.907 404.477C164.654 396.687 163.89 388.922 162.622 381.232C159.578 362.742 152.713 358.411 140.013 356.74Z" fill="#4C9790"/>
<path d="M400.537 162.872H421.847C422.081 162.86 422.301 162.759 422.463 162.589C422.624 162.419 422.714 162.194 422.714 161.959C422.714 161.725 422.624 161.499 422.463 161.33C422.301 161.16 422.081 161.058 421.847 161.046H400.537C400.303 161.058 400.082 161.16 399.921 161.33C399.76 161.499 399.67 161.725 399.67 161.959C399.67 162.194 399.76 162.419 399.921 162.589C400.082 162.759 400.303 162.86 400.537 162.872Z" fill="black"/>
<path d="M351.323 154.432C355.425 154.381 386.366 153.809 387.852 153.772C388.086 153.76 388.306 153.658 388.468 153.488C388.629 153.318 388.719 153.093 388.719 152.859C388.719 152.624 388.629 152.399 388.468 152.229C388.306 152.059 388.086 151.957 387.852 151.945L351.323 152.606C351.199 152.599 351.075 152.618 350.959 152.661C350.842 152.704 350.736 152.77 350.646 152.856C350.556 152.941 350.484 153.044 350.435 153.158C350.386 153.272 350.361 153.395 350.361 153.519C350.361 153.643 350.386 153.766 350.435 153.88C350.484 153.994 350.556 154.097 350.646 154.182C350.736 154.268 350.842 154.334 350.959 154.377C351.075 154.42 351.199 154.439 351.323 154.432Z" fill="black"/>
<path d="M315.237 113.055L337.232 112.394C338.405 112.357 338.41 110.53 337.232 110.567L315.237 111.228C314.063 111.263 314.058 113.089 315.237 113.055Z" fill="black"/>
<path d="M170.334 155.294C170.334 155.294 202.752 154.742 206.863 154.634C207.097 154.622 207.318 154.52 207.479 154.35C207.64 154.18 207.73 153.955 207.73 153.72C207.73 153.486 207.64 153.261 207.479 153.091C207.318 152.921 207.097 152.819 206.863 152.807L170.334 153.465C170.1 153.478 169.88 153.579 169.719 153.749C169.557 153.919 169.467 154.144 169.467 154.379C169.467 154.613 169.557 154.838 169.719 155.008C169.88 155.178 170.1 155.28 170.334 155.292V155.294Z" fill="black"/>
<path d="M106.734 124.712L133.29 124.051C133.524 124.039 133.744 123.937 133.905 123.767C134.067 123.597 134.157 123.372 134.157 123.138C134.157 122.903 134.067 122.678 133.905 122.508C133.744 122.338 133.524 122.237 133.29 122.224L106.734 122.885C106.5 122.897 106.28 122.999 106.118 123.169C105.957 123.339 105.867 123.564 105.867 123.798C105.867 124.033 105.957 124.258 106.118 124.428C106.28 124.598 106.5 124.699 106.734 124.712Z" fill="black"/>
<path d="M311.976 332.885C311.838 331.732 310.004 331.72 310.15 332.885C310.396 334.946 310.932 336.961 311.742 338.871C311.865 339.079 312.065 339.23 312.3 339.292C312.534 339.353 312.783 339.32 312.992 339.198C313.198 339.073 313.347 338.873 313.408 338.64C313.469 338.407 313.437 338.159 313.32 337.949C312.639 336.331 312.187 334.627 311.976 332.885Z" fill="#A8C1BE"/>
<path d="M328.69 333.655C328.813 332.486 326.964 332.494 326.863 333.655C326.634 336.033 327.068 338.429 328.115 340.576C328.628 341.634 330.196 340.712 329.693 339.655C328.811 337.786 328.464 335.709 328.69 333.655Z" fill="#A8C1BE"/>
<path d="M342.109 330.31C342.255 329.196 340.435 329.132 340.283 330.31C339.688 334.853 339.025 336.832 340.241 337.762C340.38 337.841 340.537 337.883 340.697 337.883C340.857 337.883 341.015 337.841 341.153 337.761C341.292 337.681 341.408 337.567 341.489 337.428C341.569 337.29 341.612 337.133 341.614 336.973C341.466 335.758 343.169 335.582 344.015 336.633C344.852 337.773 345.413 339.093 345.655 340.487C345.897 341.882 345.812 343.313 345.407 344.669C345.003 346.025 344.289 347.269 343.323 348.303C342.357 349.337 341.164 350.133 339.839 350.629C338.67 350.925 337.454 350.982 336.263 350.795C335.072 350.608 333.931 350.182 332.909 349.542C331.887 348.903 331.005 348.063 330.317 347.073C329.629 346.083 329.148 344.964 328.904 343.784C328.9 343.565 328.817 343.356 328.672 343.193C328.527 343.03 328.328 342.924 328.112 342.894C327.896 342.864 327.676 342.913 327.492 343.031C327.308 343.148 327.173 343.328 327.11 343.537C326.805 344.705 326.092 345.726 325.1 346.413C324.108 347.101 322.902 347.41 321.701 347.284C320.264 347.046 318.894 346.505 317.681 345.698C316.468 344.89 315.441 343.834 314.666 342.6C314.255 342.048 313.145 341.957 312.997 342.817C312.947 343.096 312.868 343.368 312.763 343.631C312.406 344.364 311.881 345.004 311.232 345.498C310.582 345.992 309.826 346.327 309.024 346.475C304.69 347.422 301.451 343.946 299.423 340.024C296.349 334.091 294 324.672 292.077 318.226C292.002 318.007 291.846 317.824 291.642 317.715C291.437 317.606 291.198 317.579 290.974 317.639C290.75 317.699 290.558 317.842 290.435 318.039C290.313 318.236 290.27 318.472 290.314 318.7C291.813 324.998 295.447 337.202 298.676 342.364C300.115 345.017 302.469 347.058 305.299 348.107C306.928 348.649 308.691 348.627 310.306 348.046C311.92 347.465 313.293 346.358 314.203 344.903C315.122 346.105 316.282 347.103 317.607 347.833C318.933 348.563 320.396 349.01 321.903 349.145C323.035 349.169 324.156 348.933 325.182 348.455C326.208 347.977 327.11 347.27 327.819 346.389C328.847 348.716 330.67 350.6 332.961 351.704C335.253 352.807 337.862 353.058 340.322 352.411C341.71 351.917 342.985 351.152 344.073 350.159C345.161 349.166 346.039 347.966 346.658 346.629C347.276 345.293 347.621 343.846 347.673 342.374C347.725 340.902 347.483 339.434 346.96 338.057C346.704 337.193 346.253 336.398 345.643 335.734C345.032 335.07 344.278 334.554 343.438 334.227C342.805 334.074 342.141 334.125 341.54 334.372C341.579 334.103 342.018 331.01 342.109 330.31Z" fill="#A8C1BE"/>
<path d="M286.889 273.008C286.489 271.911 284.725 272.384 285.126 273.501L288.173 281.882C288.57 282.979 290.337 282.506 289.933 281.389C288.914 278.594 287.899 275.8 286.889 273.008Z" fill="#A8C1BE"/>
<path d="M310.098 220.704C308.107 215.529 306.475 210.222 305.215 204.822C304.949 203.678 303.186 204.161 303.455 205.315C304.152 208.307 304.976 211.268 305.9 214.189C293.036 220.077 280.149 225.917 267.241 231.71C266.911 230.517 266.568 229.329 266.268 228.126C266.195 227.901 266.039 227.712 265.83 227.6C265.622 227.488 265.378 227.461 265.15 227.525C264.922 227.589 264.728 227.738 264.608 227.942C264.489 228.146 264.452 228.389 264.508 228.619C265.437 232.388 266.532 236.115 267.789 239.788C268.166 240.895 269.931 240.421 269.551 239.295C268.894 237.372 268.285 235.435 267.725 233.485C277.9 228.942 303.714 217.191 306.472 215.922C307.059 217.687 307.67 219.444 308.338 221.182C308.757 222.274 310.522 221.803 310.098 220.704Z" fill="#4C9790"/>
<path d="M246.993 186.625C245.088 178.416 240.167 157.227 239.598 154.843C239.327 153.7 237.564 154.185 237.838 155.336C239.429 162.018 240.99 168.706 242.521 175.402C220.852 179.56 207.144 183.29 199.773 185.079C198.644 185.353 199.155 187.147 200.266 186.839C213.084 183.267 229.906 179.678 242.936 177.179C243.273 178.633 244.661 184.667 245.238 187.118C245.487 188.254 247.239 187.768 246.993 186.625Z" fill="#77751E"/>
<path d="M235.997 181.606C234.608 181.902 233.241 182.292 231.905 182.772C230.808 183.167 231.281 184.932 232.398 184.532C233.734 184.052 235.101 183.664 236.49 183.369C237.626 183.125 237.146 181.365 235.997 181.606Z" fill="#77751E"/>
<path d="M228.073 289.8C252.923 298.07 250.931 335.895 251.636 362.547C251.648 362.781 251.75 363.001 251.919 363.163C252.089 363.324 252.315 363.414 252.549 363.414C252.783 363.414 253.009 363.324 253.179 363.163C253.349 363.001 253.45 362.781 253.462 362.547C253.006 338.033 252.723 328.417 249.9 315.219C248.539 308.393 245.545 301.998 241.174 296.581C238.435 293.475 235.096 290.956 231.358 289.174C227.62 287.392 223.561 286.385 219.423 286.213C210.165 285.494 197.009 285.343 193.491 285.439C193.257 285.452 193.037 285.553 192.876 285.723C192.714 285.893 192.624 286.118 192.624 286.353C192.624 286.587 192.714 286.812 192.876 286.982C193.037 287.152 193.257 287.254 193.491 287.266C199.977 287.133 212.161 287.675 216.84 287.872C220.656 287.989 224.437 288.638 228.073 289.8Z" fill="white"/>
<path d="M180.141 323.033C180.658 324.088 182.233 323.164 181.718 322.111L177.439 313.38C176.924 312.325 175.346 313.25 175.864 314.302L180.141 323.033Z" fill="#FC9070"/>
<path d="M198.057 318.926C198.59 319.974 200.165 319.049 199.633 318.004L195.228 309.325C194.693 308.277 193.118 309.202 193.65 310.247L198.057 318.926Z" fill="#FC9070"/>
<path d="M194.63 89.6098C195.024 94.4436 201.012 96.0188 205.022 95.93C209.4 95.8314 213.445 93.6302 217.081 95.93C217.03 96.9447 217.222 97.9568 217.641 98.8824C218.06 99.808 218.694 100.62 219.489 101.252C220.285 101.884 221.22 102.317 222.216 102.515C223.213 102.713 224.242 102.671 225.219 102.391C226.196 102.112 227.092 101.604 227.833 100.909C228.574 100.214 229.138 99.3524 229.48 98.3955C229.821 97.4387 229.93 96.4142 229.796 95.4071C229.662 94.4 229.29 93.4393 228.711 92.6047L228.886 92.8512C226.921 87.7656 223.131 83.5947 218.257 81.1523C212.469 78.7194 206.23 80.8294 200.78 83.1243C197.943 84.3421 194.588 86.0281 194.63 89.6098ZM226.746 93.5316C227.284 94.1802 227.618 94.9739 227.706 95.8122C227.793 96.6506 227.63 97.496 227.236 98.2416C226.843 98.9872 226.238 99.5994 225.497 100.001C224.755 100.402 223.912 100.575 223.073 100.497C222.233 100.419 221.436 100.094 220.781 99.5633C220.127 99.0322 219.644 98.319 219.395 97.5138C219.146 96.7086 219.141 95.8476 219.381 95.0396C219.621 94.2316 220.095 93.5129 220.744 92.9745C221.615 92.256 222.735 91.9114 223.86 92.0158C224.984 92.1201 226.022 92.665 226.746 93.5316ZM201.741 85.0421C204.303 83.8834 206.988 83.0184 209.745 82.4637C216.359 81.1942 221.454 84.4357 224.998 90.1052C223.53 89.7176 221.971 89.8761 220.611 90.5511C219.251 91.2262 218.182 92.3719 217.603 93.7756C216.763 93.3115 215.843 93.0065 214.892 92.8759C212.442 92.727 209.984 92.9607 207.605 93.5685C205.416 93.978 203.162 93.8938 201.009 93.3221C199.306 92.8291 196.929 91.6459 196.764 89.6246C196.732 86.9919 199.747 85.8704 201.741 85.0421Z" fill="black"/>
<path d="M289.034 135.878C288.992 136.453 289.064 137.03 289.248 137.576C289.431 138.123 289.721 138.627 290.101 139.06C290.481 139.492 290.944 139.845 291.462 140.097C291.98 140.349 292.544 140.495 293.119 140.527C292.603 141.083 292.276 141.787 292.185 142.54C292.094 143.293 292.243 144.055 292.611 144.718C293.942 147.064 297.339 146.81 299.819 146.382C299.922 147.681 300.318 148.939 300.978 150.064C301.637 151.188 302.543 152.148 303.627 152.872C304.71 153.596 305.944 154.065 307.235 154.243C308.526 154.422 309.84 154.307 311.08 153.905C312.32 153.503 313.452 152.825 314.393 151.923C315.333 151.02 316.057 149.917 316.509 148.695C316.962 147.473 317.132 146.164 317.007 144.867C316.881 143.569 316.463 142.318 315.785 141.205C315.259 140.355 314.599 139.595 313.83 138.957C311.244 133.202 307.14 128.26 301.958 124.66C298.808 122.21 294.305 121.31 291.746 124.623C291.043 125.819 290.837 127.244 291.171 128.591C291.506 129.937 292.354 131.1 293.535 131.828C291.315 132.269 289.222 133.475 289.034 135.878ZM314.993 145.723C314.992 147.068 314.577 148.379 313.805 149.48C313.032 150.58 311.939 151.415 310.675 151.873C309.41 152.33 308.036 152.387 306.738 152.035C305.441 151.684 304.283 150.942 303.422 149.909C302.561 148.876 302.039 147.603 301.927 146.264C301.815 144.924 302.118 143.582 302.796 142.421C303.473 141.259 304.492 140.335 305.713 139.773C306.935 139.211 308.299 139.039 309.622 139.28C311.124 139.567 312.481 140.366 313.46 141.541C314.439 142.716 314.981 144.194 314.993 145.723ZM291.149 136.083C291.226 135.006 292.419 134.32 293.346 134.027C294.533 133.687 295.781 133.61 297.001 133.8C298.069 133.933 298.424 132.282 297.539 131.813C296.163 131.224 294.925 130.353 293.905 129.257C293.467 128.792 293.195 128.196 293.13 127.561C293.065 126.925 293.211 126.286 293.545 125.742C295.456 123.304 298.949 125.168 300.884 126.482C304.942 129.311 308.297 133.033 310.692 137.362C309.539 137.049 308.334 136.978 307.153 137.156C305.972 137.334 304.84 137.756 303.831 138.395C302.822 139.034 301.957 139.877 301.291 140.868C300.626 141.86 300.174 142.98 299.964 144.156C299.042 144.337 298.106 144.445 297.166 144.479C296.18 144.503 294.512 144.446 294.29 143.189C294.107 142.152 295.429 140.946 296.415 140.934C296.667 140.925 296.908 140.827 297.095 140.657C297.282 140.488 297.403 140.258 297.437 140.007C297.471 139.757 297.415 139.503 297.279 139.29C297.143 139.077 296.937 138.919 296.696 138.844C295.23 138.704 293.774 138.472 292.337 138.148C291.961 137.955 291.649 137.658 291.438 137.291C291.227 136.925 291.127 136.505 291.149 136.083Z" fill="black"/>
<path d="M48.0265 214.785C55.3583 213.753 62.526 211.778 69.3512 208.908C58.6507 231.833 63.4352 256.892 70.0513 281.414C70.0524 281.453 70.0574 281.492 70.0661 281.53C72.5976 291.663 76.2286 301.459 79.6056 311.356L79.6599 311.497C80.8036 314.576 81.9696 317.644 83.2095 320.686C86.3573 328.858 90.565 335.193 98.6625 339.068C108.03 343.382 115.111 343.966 131.97 346.662C165.558 352.036 165.193 351.78 170.424 353.01C175.08 354.107 180.449 355.916 183.528 359.833C185.133 362.41 186.222 365.275 186.732 368.268C188.359 375.594 189.606 382.999 190.467 390.453C190.529 390.678 190.664 390.875 190.849 391.016C191.035 391.158 191.261 391.234 191.494 391.235H251.618C251.899 391.229 252.166 391.115 252.365 390.916C252.563 390.718 252.677 390.45 252.683 390.17C252.787 387.565 252.884 384.96 252.974 382.356L280.646 382.528C280.877 382.522 281.1 382.441 281.281 382.298C281.462 382.155 281.593 381.957 281.653 381.735C281.713 381.512 281.7 381.275 281.616 381.06C281.531 380.845 281.38 380.663 281.183 380.541C272.439 376.119 262.995 373.245 253.27 372.047C253.309 370.198 253.336 368.349 253.351 366.498H264.175C264.456 366.494 264.725 366.38 264.924 366.182C265.123 365.983 265.237 365.715 265.242 365.433C265.336 316.787 265.242 304.301 261.064 294.441C259.842 291.344 258.013 288.522 255.685 286.142C253.357 283.762 250.576 281.871 247.507 280.581C237.21 276.417 220.392 278.044 195.858 277.246C191.968 255.396 187.619 230.519 179.169 211.963C169.334 191.18 147.41 176.814 120.562 177.896C121.72 176.637 122.814 175.321 123.84 173.952C127.663 168.825 130.786 161.657 129.623 155.374C128.753 150.69 124.353 147.515 120.155 145.913C109.602 141.888 97.3413 147.059 85.8618 150.665C67.7219 156.36 47.849 162.128 32.5463 168.919C27.3424 171.018 22.5757 174.069 18.4909 177.916C3.45438 193.073 16.9774 218.751 48.0265 214.785ZM275.82 380.349C272.24 380.243 276.313 380.27 253.05 380.27C253.117 378.249 253.174 376.164 253.223 374.142C261.013 375.12 268.623 377.21 275.82 380.349ZM199.36 279.469C222.499 280.048 230.87 279.383 240.178 280.78C255.954 283.083 261.301 295.23 262.385 311.07C263.268 323.977 263.157 352.182 263.125 364.354H252.313C252.032 364.358 251.763 364.471 251.564 364.67C251.364 364.869 251.251 365.137 251.246 365.419C251.192 373.307 250.918 381.195 250.605 389.083H192.409C190.873 379.131 189.84 367.93 186.343 360.41C184.253 356.818 180.921 354.116 176.976 352.813C171.39 350.498 170.717 350.695 120.463 342.657C115.191 341.943 109.984 340.812 104.892 339.275C99.939 337.859 95.4417 335.175 91.8444 331.488C87.4221 326.881 85.1889 320.196 82.0115 311.662C82.8027 311.361 83.5891 311.048 84.3803 310.74C91.0584 318.469 99.8204 324.112 109.619 326.994C128.307 332.637 149.407 329.336 160.924 329.496C162.87 329.506 164.738 330.263 166.142 331.611C168.807 334.204 168.134 337.406 170.535 345.238C170.77 346.353 171.245 347.403 171.929 348.315C172.612 349.227 173.487 349.979 174.491 350.518C175.469 350.962 176.578 351.021 177.598 350.683C178.617 350.344 179.471 349.633 179.988 348.691C180.724 346.888 180.999 344.93 180.789 342.995C180.763 339.26 181.053 335.531 181.657 331.845C181.742 331.612 181.905 331.415 182.118 331.289C182.331 331.162 182.582 331.113 182.828 331.15C184.393 331.35 183.537 333.99 188.251 343.64C189.14 345.452 190.05 347.774 192.037 348.617C193.042 349.042 194.161 349.114 195.212 348.822C196.264 348.529 197.185 347.89 197.827 347.008C202.321 340.727 194.78 334.076 197.938 329.013C198.702 327.926 199.301 328.414 200.065 329.491C202.698 333.189 202.676 338.309 206.368 341.336C207.085 341.99 207.925 342.493 208.84 342.815C209.754 343.138 210.725 343.274 211.693 343.214C213.335 342.868 214.775 341.887 215.698 340.485C216.622 339.083 216.954 337.373 216.623 335.728C215.038 323.58 213.561 310.693 206.469 300.313C203.522 295.838 199.533 292.145 194.844 289.551C187.782 285.824 179.33 286.154 170.66 286.036C201.175 277.891 193.065 279.311 199.36 279.469ZM195.416 335.082C196.301 337.497 196.886 340.012 197.157 342.571C197.125 344.543 195.946 347.126 193.585 346.872C191.679 346.667 190.799 344.013 190.092 342.568C188.886 340.125 187.837 337.607 186.951 335.03C185.822 331.705 185.845 330.421 184.24 329.425C183.525 329.036 182.691 328.927 181.9 329.119C181.11 329.311 180.418 329.79 179.961 330.462C179.484 331.45 179.232 332.531 179.221 333.628C177.932 343.754 179.685 347.584 177.05 348.652C174.787 349.566 173.224 346.707 172.667 345.004C170.071 336.539 171.099 335.144 168.602 331.234C167.386 329.619 165.698 328.423 163.771 327.813C161.5 327.302 159.161 327.177 156.849 327.443C155.836 327.477 154.825 327.524 153.812 327.569V288.116C160.302 288.067 166.795 288.079 173.285 288.193C179.495 288.299 186.079 288.057 191.913 290.522C201.978 294.769 207.904 304.977 210.778 315.046C212.52 321.843 213.756 328.759 214.476 335.738C215.025 340.562 211.21 343.014 207.396 339.435C203.726 335.447 205.178 332.997 201.362 327.731C201.042 327.282 200.619 326.917 200.128 326.667C199.637 326.416 199.093 326.287 198.542 326.292C197.973 326.379 197.435 326.605 196.974 326.948C196.513 327.292 196.143 327.744 195.897 328.264C194.896 330.398 194.725 332.828 195.416 335.082ZM121.683 179.991C132.259 179.518 142.768 181.891 152.114 186.865C161.459 191.838 169.299 199.229 174.814 208.265C178.455 214.818 181.292 221.787 183.261 229.02C187.677 244.973 191.18 261.163 193.752 277.514C186.979 279.506 173.448 283.112 162.716 285.969C159.395 285.969 156.072 285.969 152.752 285.989C152.471 285.992 152.202 286.105 152.003 286.304C151.804 286.503 151.69 286.772 151.687 287.054V289.304C151.46 289.669 151.534 287.197 151.534 327.672C143.117 328.264 134.671 328.322 126.246 327.845C110.085 326.57 95.8204 321.369 85.3861 308.704C80.9984 304.139 76.6279 292.489 74.6806 286.435C74.6059 286.189 74.4418 285.979 74.2206 285.848C73.9994 285.717 73.737 285.673 73.485 285.725C68.555 268.65 64.086 250.099 65.4294 232.587C66.4524 219.242 71.1926 205.645 80.7938 196.034C91.3661 185.437 106.984 180.408 121.683 179.991ZM26.9138 210.018C17.9461 205.876 11.934 195.888 15.5748 186.107C17.6476 181.408 21.1588 177.489 25.6024 174.914C38.3612 167.366 60.5586 160.834 75.3954 156.18C99.5869 148.582 103.871 146.956 110.546 146.566C115.325 146.248 120.064 147.611 123.944 150.419C125.645 151.649 126.885 153.415 127.464 155.433C127.89 157.615 127.811 159.865 127.234 162.012C126.672 164.384 125.793 166.67 124.621 168.808C122.667 172.199 120.269 175.315 117.49 178.071C105.16 178.937 93.3452 183.356 83.4732 190.793C78.2468 194.965 73.9334 200.166 70.8006 206.074C57.3171 211.768 40.1385 216.427 26.9138 210.018Z" fill="black"/>
<path d="M107.206 169.882C108.525 170.368 109.941 170.529 111.334 170.35C112.728 170.171 114.057 169.658 115.21 168.855C116.363 168.052 117.304 166.983 117.955 165.737C118.606 164.492 118.946 163.108 118.947 161.704C118.929 159.926 118.377 158.196 117.361 156.737C116.345 155.279 114.914 154.16 113.253 153.527C112.179 153.13 111.038 152.948 109.894 152.993C108.75 153.037 107.626 153.306 106.586 153.784C105.546 154.263 104.61 154.941 103.833 155.781C103.055 156.621 102.45 157.606 102.053 158.68C101.656 159.754 101.475 160.895 101.519 162.039C101.563 163.183 101.832 164.307 102.31 165.347C102.789 166.387 103.467 167.323 104.308 168.101C105.148 168.878 106.133 169.483 107.206 169.88V169.882ZM107.946 155.514C108.943 155.148 110.014 155.028 111.067 155.164C112.121 155.3 113.126 155.689 113.997 156.297C114.868 156.904 115.58 157.714 116.071 158.655C116.563 159.597 116.82 160.644 116.82 161.706C116.812 163.054 116.394 164.368 115.622 165.474C114.851 166.58 113.761 167.425 112.499 167.898C110.856 168.502 109.042 168.428 107.453 167.694C105.865 166.96 104.634 165.625 104.03 163.982C103.426 162.34 103.5 160.525 104.234 158.937C104.968 157.349 106.304 156.118 107.946 155.514Z" fill="black"/>
<path d="M204.458 401.777C198.818 403.252 193.342 405.296 188.115 407.878C187.998 407.922 187.891 407.99 187.802 408.077C187.713 408.164 187.642 408.27 187.596 408.386C187.55 408.502 187.528 408.626 187.532 408.751C187.537 408.876 187.567 408.998 187.622 409.111C187.669 409.334 187.794 409.534 187.975 409.674C188.155 409.814 188.38 409.885 188.608 409.875H264.168C264.398 409.868 264.62 409.787 264.801 409.645C264.982 409.502 265.112 409.305 265.173 409.083C265.233 408.86 265.221 408.625 265.137 408.41C265.053 408.195 264.903 408.013 264.708 407.891C246.033 398.604 224.617 396.431 204.458 401.777ZM193.612 407.711C204.02 403.313 215.206 401.05 226.505 401.058C237.805 401.065 248.988 403.341 259.39 407.753C188.699 407.753 198.734 407.767 193.619 407.711H193.612Z" fill="black"/>
<path d="M135.476 242.77C136.218 244.538 137.462 246.05 139.054 247.118C140.646 248.186 142.516 248.763 144.433 248.779C146.35 248.795 148.23 248.248 149.839 247.206C151.448 246.164 152.717 244.674 153.488 242.918C154.717 240.014 154.892 236.77 153.981 233.751C152.058 227.517 150.761 226.602 131.446 189.226C131.322 189.034 131.141 188.887 130.928 188.806C130.716 188.725 130.483 188.713 130.263 188.773C130.043 188.833 129.849 188.961 129.707 189.139C129.565 189.317 129.483 189.535 129.474 189.763C129.876 205.236 131.211 220.671 133.472 235.984C133.825 238.328 134.499 240.611 135.476 242.77ZM147.72 224.837C149.424 227.854 150.835 231.028 151.932 234.315C152.685 236.751 152.598 239.369 151.686 241.75C151.276 242.786 150.647 243.722 149.841 244.493C149.036 245.264 148.074 245.851 147.021 246.215C145.967 246.58 144.847 246.712 143.738 246.603C142.629 246.494 141.556 246.147 140.593 245.585C138.908 244.479 137.636 242.847 136.972 240.944C133.625 232.003 132.262 203.942 131.818 194.525C137.095 204.644 142.235 214.837 147.72 224.837Z" fill="black"/>
<path d="M121.773 289.215C121.815 289.369 121.891 289.511 121.995 289.631C122.099 289.75 122.23 289.845 122.376 289.906C122.523 289.968 122.681 289.996 122.84 289.987C122.999 289.978 123.153 289.934 123.292 289.856C127.809 289.104 132.361 288.579 136.931 288.284C137.343 300.773 137.43 313.274 137.192 325.786C137.205 326.06 137.323 326.318 137.522 326.507C137.72 326.697 137.984 326.802 138.258 326.802C138.532 326.802 138.796 326.697 138.995 326.507C139.193 326.318 139.311 326.06 139.324 325.786C139.566 313.101 139.474 300.415 139.048 287.729C139.039 287.525 138.971 287.329 138.851 287.164C138.87 287.043 138.865 286.919 138.836 286.799C138.808 286.679 138.755 286.566 138.683 286.467C138.61 286.368 138.519 286.284 138.413 286.22C138.308 286.156 138.191 286.113 138.07 286.095C137.402 285.994 128.382 286.893 123.667 287.657C120.854 269.07 116.744 250.702 111.366 232.688C111.281 232.427 111.099 232.208 110.857 232.078C110.615 231.947 110.332 231.915 110.067 231.988C109.802 232.062 109.576 232.234 109.435 232.47C109.294 232.706 109.249 232.987 109.31 233.255C114.786 251.589 118.951 270.29 121.773 289.215Z" fill="black"/>
<path d="M250.007 163.197C250.979 163.444 259.927 161.267 266.306 160.212C267.046 160.089 267.184 159.209 266.942 158.647C261.058 144.74 254.024 131.349 245.913 118.613C245.777 118.4 245.57 118.242 245.328 118.167C245.087 118.092 244.827 118.105 244.594 118.203C244.361 118.301 244.17 118.479 244.055 118.704C243.94 118.929 243.909 119.187 243.966 119.434C247.388 133.431 249.135 147.786 249.169 162.196C249.16 162.438 249.24 162.674 249.395 162.859C249.55 163.044 249.768 163.164 250.007 163.197ZM264.504 158.383C260.082 159.162 255.702 160.153 251.279 160.937C251.171 148.894 249.878 136.89 247.417 125.101C253.884 135.78 259.591 146.902 264.497 158.383H264.504Z" fill="black"/>
<path d="M323.562 214.758C323.735 215.4 324.058 215.992 324.504 216.484C329.787 224.255 335.537 231.699 341.722 238.775C342.397 239.546 343.447 238.849 343.541 238.021C344.054 233.524 345.851 214.214 346.006 212.651C346.228 211.864 346.216 211.03 345.971 210.25C345.831 210.003 329.086 182.048 325.8 174.705C325.765 174.579 325.702 174.463 325.616 174.364C325.53 174.266 325.423 174.188 325.303 174.136C325.183 174.084 325.053 174.059 324.923 174.064C324.792 174.069 324.664 174.102 324.548 174.162C324.321 174.204 324.117 174.328 323.973 174.509C323.83 174.69 323.758 174.917 323.769 175.148C324.509 193.33 323.498 213.129 323.562 214.758ZM325.781 212.643C326.212 197.853 326.175 192.25 325.973 179.731C326.754 181.18 344.049 211.15 344.088 211.209C343.842 211.268 343.319 220.083 341.695 235.437C335.963 228.758 330.624 221.753 325.704 214.455C325.645 213.851 325.667 213.242 325.768 212.643H325.781Z" fill="black"/>
<path d="M468.648 297.673C467.056 287.228 463.11 277.281 457.107 268.586C450.541 259.284 440.701 252.808 429.56 250.456C411.189 246.99 384.079 248.977 374.002 248.708C368.904 231.488 365.544 213.676 358.719 193.45C357.608 190.033 356.062 186.772 354.119 183.748C348.432 176.047 340.238 170.568 330.948 168.256C316.696 165.625 301.974 167.943 289.221 174.827C289.004 174.105 289.361 175.434 287.458 169.594C283.47 157.41 279.646 145.08 272.535 134.308C266.021 124.146 255.948 116.784 244.289 113.663C232.486 110.841 219.949 114.008 209.71 120.134C200.771 125.311 194.7 131.7 193.177 141.873C192.571 145.522 192.348 149.223 192.511 152.919L170.366 153.32C170.083 153.32 169.812 153.433 169.613 153.632C169.413 153.832 169.301 154.103 169.301 154.385C169.301 154.668 169.413 154.938 169.613 155.138C169.812 155.338 170.083 155.45 170.366 155.45L192.593 155.048C193.416 168.87 198.836 194.353 202.763 213.668C203.411 216.858 203.924 220.169 204.77 223.358C207.871 238.718 208.277 245.967 213.836 253.446C217.444 258.436 222.122 262.555 227.529 265.501C232.936 268.447 238.934 270.146 245.082 270.472C252.75 270.993 260.451 270.301 267.903 268.423L268.041 269.121C271.172 284.288 275.567 303.971 288.474 312.505C290.382 319.543 293.948 333.228 297.101 339.773C297.538 340.694 298.025 341.59 298.56 342.457C298.807 342.859 299.204 343.537 299.475 343.872C293.347 348.475 288.682 354.753 286.043 361.948C286.09 361.904 285.797 364.679 286.29 411.401C286.27 411.554 286.283 411.71 286.327 411.858C286.371 412.007 286.446 412.144 286.547 412.261C286.647 412.379 286.771 412.474 286.911 412.541C287.05 412.607 287.202 412.644 287.357 412.648C369.619 412.73 364.102 413.274 365.005 412.611C365.154 412.457 365.255 412.261 365.293 412.049C365.282 412.091 365.269 412.132 365.253 412.172C365.355 411.896 365.443 362.409 365.384 362.093C364.326 357.311 362.351 352.778 359.567 348.748C356.829 344.619 353.671 340.786 350.143 337.308C349.157 336.354 347.646 337.86 348.637 338.814C352.072 342.13 355.122 345.823 357.728 349.823C360.153 353.315 361.953 357.203 363.045 361.312H288.602C289.798 358.614 291.237 356.031 292.901 353.594C295.004 350.396 297.72 347.646 300.892 345.504C301.821 346.517 302.96 347.316 304.229 347.845C305.498 348.373 306.867 348.619 308.24 348.566C309.44 348.515 310.61 348.179 311.654 347.585C312.697 346.991 313.584 346.157 314.24 345.152C315.168 346.326 316.326 347.298 317.644 348.008C318.961 348.718 320.41 349.15 321.902 349.278C323.015 349.297 324.12 349.072 325.137 348.617C326.153 348.162 327.058 347.489 327.786 346.645C328.859 348.945 330.705 350.794 333.003 351.872C335.3 352.949 337.903 353.185 340.357 352.539C341.764 352.04 343.057 351.265 344.161 350.26C345.265 349.255 346.157 348.039 346.786 346.685C347.414 345.33 347.766 343.864 347.82 342.372C347.875 340.88 347.631 339.392 347.104 337.996C346.839 337.105 346.375 336.287 345.746 335.603C345.117 334.92 344.341 334.389 343.475 334.052C342.892 333.911 342.28 333.94 341.713 334.135L341.959 332.324C343.508 333.683 345.329 334.697 347.3 335.298C349.271 335.899 351.348 336.073 353.392 335.809C355.433 335.45 357.276 334.366 358.582 332.756C359.887 331.147 360.568 329.12 360.499 327.049C360.346 323.642 358.918 320.417 356.498 318.014C364.741 318.458 375.831 319.124 383.058 320.078C387.698 320.389 392.038 322.479 395.174 325.912C401.775 333.11 402.473 343.697 403.801 352.892L404.94 360.78C405.003 361.004 405.137 361.202 405.323 361.343C405.508 361.484 405.735 361.561 405.968 361.561C421.744 361.561 437.52 361.552 453.296 361.534C453.578 361.532 453.847 361.419 454.047 361.22C454.246 361.021 454.359 360.751 454.361 360.469C453.794 353.466 453.128 346.47 452.549 339.467C472.133 339.494 471.374 339.655 471.845 339.43C472.043 339.367 472.211 339.236 472.321 339.06C472.43 338.884 472.473 338.674 472.442 338.469C470.28 312.968 469.991 305.312 468.648 297.673ZM362.498 363.439C358.793 369.375 353.758 374.368 347.792 378.024C341.826 381.68 335.092 383.899 328.121 384.505C328.121 383.273 328.084 379.119 328.084 379.119C328.079 378.979 328.047 378.842 327.989 378.714C327.931 378.587 327.848 378.472 327.746 378.377C327.644 378.281 327.523 378.207 327.392 378.158C327.261 378.109 327.122 378.086 326.982 378.091C326.714 378.101 326.46 378.213 326.272 378.404C326.084 378.596 325.977 378.851 325.971 379.119V384.589C323.39 384.666 320.811 384.373 318.312 383.719C306.579 380.366 296.279 373.238 289.006 363.439H362.498ZM315.717 385.193C319.047 386.227 322.519 386.736 326.006 386.702C326.006 388.02 326.045 392.312 326.045 392.312C326.05 392.452 326.082 392.59 326.14 392.717C326.197 392.845 326.28 392.96 326.382 393.055C326.485 393.151 326.605 393.225 326.736 393.274C326.867 393.323 327.007 393.345 327.147 393.34C327.415 393.33 327.668 393.218 327.856 393.027C328.043 392.835 328.15 392.58 328.155 392.312V386.642C335.163 386.051 341.952 383.905 348.027 380.361C354.102 376.818 359.312 371.965 363.277 366.156C363.277 377.756 363.198 406.55 363.198 409.348L350.38 396.998C349.394 396.046 347.885 397.553 348.874 398.506L361.605 410.767C356.86 410.728 291.503 410.521 290.197 410.521L303.971 398.504C305.004 397.599 303.493 396.098 302.463 396.995L288.412 409.261C288.378 405.99 288.106 368.855 288.104 365.786C295.254 374.772 304.84 381.509 315.717 385.193ZM199.586 186.903C199.804 187.016 200.056 187.043 200.293 186.98C214.945 183.147 229.627 179.856 242.812 177.352C242.953 177.958 244.459 184.5 245.077 187.15C245.385 188.486 247.441 187.922 247.131 186.583C244.677 175.987 242.212 165.394 239.736 154.804C239.418 153.471 237.362 154.035 237.68 155.369C239.259 161.999 240.811 168.635 242.334 175.279C228.03 178.03 213.82 181.246 199.726 184.924C199.551 184.971 199.39 185.063 199.263 185.193C197.113 175.235 195.586 165.152 194.69 155.004L206.872 154.785C207.146 154.771 207.405 154.653 207.594 154.455C207.783 154.256 207.888 153.993 207.888 153.718C207.888 153.444 207.783 153.181 207.594 152.982C207.405 152.784 207.146 152.665 206.872 152.652L194.599 152.877C194.138 137.027 198.627 130.056 207.417 124.14C216.502 117.612 227.532 114.359 238.705 114.913C250.392 115.882 260.991 122.929 268.177 131.922C277.297 143.335 282.296 160.802 287.157 175.52C287.251 175.111 287.3 174.965 287.051 176.06C275.585 182.927 267.134 193.868 263.387 206.697C259.914 206.409 254.819 206.047 251.309 206.032C250.256 201.102 247.668 189.023 247.668 189.023C247.587 188.755 247.405 188.528 247.161 188.391C246.916 188.253 246.628 188.215 246.357 188.284C231.658 190.569 218.14 193.796 201.494 196.463C199.817 188.023 199.702 187.056 199.586 186.903ZM201.863 198.553C217.302 196.054 232.158 192.684 245.844 190.525L249.46 207.38C249.498 207.592 249.609 207.783 249.773 207.921C249.938 208.059 250.145 208.136 250.36 208.137C250.712 208.228 251.794 207.925 262.872 208.79L262.924 208.576C260.882 218.85 260.761 229.413 262.567 239.731L262.534 239.918C224.963 239.918 227.549 240.002 224.837 239.672C220.355 238.976 216.199 236.908 212.941 233.753C209.682 230.597 207.482 226.509 206.643 222.052C206.177 219.789 202.995 204.126 201.863 198.553ZM216.326 253.185C211.124 246.823 210.373 240.86 208.647 231.986C210.97 235.229 214.059 237.847 217.64 239.606C221.221 241.364 225.182 242.208 229.168 242.063C229.168 242.063 257.634 242.149 262.904 242.063C262.839 241.64 262.776 241.217 262.714 240.793C263.592 246.406 266.313 260.365 267.492 266.343C247.846 271.073 228.702 269.062 216.326 253.185ZM279.484 184.461C295.753 169.722 319.577 166.444 334.256 171.458C340.022 173.492 345.207 176.898 349.364 181.382C352.543 184.605 354.898 188.547 356.229 192.874C362.907 211.608 366.449 230.527 371.83 248.849L322.831 257.863C318.704 247.166 314.841 236.368 311.245 225.481C311.205 225.343 311.139 225.215 311.049 225.104C310.96 224.992 310.849 224.899 310.723 224.831C310.598 224.762 310.46 224.719 310.318 224.703C310.176 224.688 310.032 224.701 309.895 224.741C309.803 224.768 270.575 243.243 270.487 243.283C270.284 243.402 270.126 243.584 270.037 243.801C269.948 244.018 269.933 244.259 269.994 244.486C271.982 251.815 273.972 259.144 275.964 266.471C275.964 266.471 270.597 267.415 269.9 267.556C264.452 237.909 254.868 207.006 279.484 184.461ZM283.642 305.297C279.902 300.278 277.04 294.66 275.18 288.683C273.086 282.48 271.46 276.129 270.314 269.683L276.533 268.539C278.998 277.645 286.378 304.799 287.594 309.271C286.133 308.097 284.808 306.765 283.642 305.297ZM356.527 321.428C358.768 324.906 359.517 330.329 355.421 332.797C350.875 335.533 345.479 332.713 341.974 329.592C341.858 329.481 341.719 329.395 341.568 329.341C341.416 329.286 341.255 329.265 341.094 329.277H341.04C340.838 329.307 340.649 329.396 340.498 329.533C340.347 329.669 340.239 329.848 340.189 330.046C340.16 330.133 340.139 330.222 340.128 330.312C339.608 334.579 338.772 336.832 340.162 337.897C340.324 337.99 340.508 338.039 340.695 338.039C340.882 338.039 341.065 337.99 341.227 337.897C341.389 337.804 341.524 337.67 341.618 337.509C341.713 337.348 341.763 337.164 341.764 336.978C341.75 336.877 341.756 336.775 341.781 336.677C341.806 336.579 341.851 336.486 341.912 336.405C341.972 336.324 342.049 336.256 342.136 336.205C342.223 336.153 342.32 336.119 342.42 336.105C342.7 336.081 342.982 336.126 343.24 336.238C343.498 336.349 343.725 336.523 343.899 336.743C344.723 337.863 345.275 339.159 345.512 340.529C345.75 341.898 345.666 343.304 345.268 344.636C344.87 345.968 344.169 347.189 343.218 348.204C342.268 349.219 341.095 349.999 339.792 350.483C338.647 350.774 337.454 350.83 336.286 350.648C335.118 350.466 333.998 350.05 332.995 349.424C331.992 348.799 331.125 347.978 330.447 347.009C329.769 346.041 329.294 344.945 329.05 343.788C329.047 343.532 328.952 343.286 328.782 343.094C328.613 342.902 328.38 342.778 328.126 342.743C327.872 342.709 327.615 342.767 327.4 342.907C327.185 343.046 327.028 343.259 326.957 343.505C326.665 344.643 325.971 345.637 325.004 346.304C324.037 346.972 322.862 347.268 321.694 347.138C320.283 346.901 318.938 346.366 317.748 345.57C316.558 344.775 315.551 343.735 314.792 342.521C314.314 341.876 313.015 341.782 312.845 342.768C312.71 343.455 312.407 344.097 311.965 344.64C311.523 345.182 310.954 345.608 310.309 345.879C307.417 347.21 303.653 346.446 300.695 341.878C297.091 336.384 296.961 333.768 272.293 244.787L309.606 227.231C313.797 239.935 318.426 252.497 323.314 264.945C325.932 271.601 337.106 298.876 337.882 300.611C338.64 302.196 339.583 303.686 340.692 305.048C348.686 315.406 352.936 316.067 356.527 321.436V321.428ZM452.384 337.34C449.179 297.279 447.454 258.99 393.485 259.402C383.588 259.301 368.322 259.36 359.764 259.724C358.398 259.784 358.391 261.913 359.764 261.854C369.656 261.435 379.59 261.472 389.489 261.507C401.018 261.546 409.702 261.507 420.694 266.124C428.731 269.615 435.391 275.663 439.64 283.327C447.732 298.58 448.267 312.303 452.147 359.407C437.065 359.407 421.982 359.415 406.9 359.431C404.454 342.423 404.139 337.835 400.737 330.366C398.962 326.614 396.207 323.409 392.763 321.091C388.928 318.982 384.658 317.786 380.285 317.595C371.658 316.624 362.939 316.195 354.252 315.769C350.605 312.838 347.223 309.593 344.146 306.069C342.501 304.112 341.047 302.003 339.802 299.771C339.413 298.847 327.066 268.766 323.607 259.88C323.607 259.88 371.828 251.087 373.122 250.781C374.108 250.924 382.523 250.663 390.924 250.565C401.998 250.232 413.082 250.631 424.103 251.76C434.964 252.647 445.053 257.73 452.229 265.931C462 276.777 466.38 292.105 467.679 306.52C468.461 314.955 470.065 335.55 470.221 337.402C464.282 337.394 458.334 337.345 452.384 337.34Z" fill="black"/>
<path d="M480.169 375.998C468.26 370.116 455.156 367.055 441.873 367.052C428.591 367.049 415.486 370.104 403.574 375.981C403.457 376.025 403.35 376.092 403.26 376.179C403.17 376.267 403.1 376.372 403.054 376.488C403.007 376.604 402.986 376.729 402.99 376.854C402.995 376.979 403.026 377.101 403.081 377.214C403.128 377.437 403.253 377.637 403.434 377.777C403.614 377.917 403.839 377.988 404.067 377.978H479.629C479.858 377.969 480.078 377.888 480.258 377.746C480.437 377.604 480.566 377.408 480.627 377.187C480.687 376.966 480.675 376.731 480.593 376.517C480.51 376.304 480.362 376.122 480.169 375.998ZM409.081 375.814C419.489 371.415 430.675 369.152 441.974 369.159C453.273 369.166 464.456 371.442 474.859 375.853C402.472 375.853 414.316 375.868 409.081 375.814Z" fill="black"/>
<path d="M419.602 280.701L427.507 284.49C428.739 285.079 429.819 283.243 428.582 282.651L420.679 278.862C419.446 278.273 418.364 280.11 419.602 280.701Z" fill="black"/>
<path d="M447.349 269.969L440.969 265.857C439.811 265.117 438.751 266.954 439.892 267.696L446.274 271.81C447.43 272.554 448.497 270.711 447.349 269.969Z" fill="black"/>
<path d="M149.906 359.069C146.747 357.803 143.43 356.974 140.046 356.604C132.247 355.584 100.991 350.814 93.1322 349.648C86.7552 348.704 79.6634 347.868 74.625 343.439C70.0154 339.386 67.8438 333.374 66.1355 327.65C59.2164 303.791 53.9859 279.475 50.4828 254.881C50.4052 254.61 50.2241 254.381 49.9787 254.242C49.7333 254.104 49.4433 254.068 49.1714 254.142C48.9039 254.223 48.6781 254.405 48.5405 254.648C48.4029 254.892 48.3641 255.179 48.4319 255.45C51.6882 278.298 56.4361 300.909 62.6451 323.137C65.1668 332.154 67.7969 342.295 76.2026 347.173C83.5976 351.46 86.9894 350.493 142.331 359.111C153.308 360.819 157.387 366.558 159.833 377.165C161.714 386.147 162.754 395.285 162.939 404.46C162.983 405.828 165.115 405.833 165.071 404.46C164.816 396.656 164.051 388.878 162.778 381.175C162.155 375.288 160.132 369.635 156.877 364.689C155.097 362.227 152.69 360.286 149.906 359.069Z" fill="black"/>
<path d="M421.848 160.893H400.539C400.265 160.906 400.006 161.024 399.817 161.222C399.628 161.421 399.522 161.685 399.522 161.959C399.522 162.233 399.628 162.497 399.817 162.695C400.006 162.894 400.265 163.012 400.539 163.025H421.848C422.122 163.012 422.381 162.894 422.57 162.695C422.759 162.497 422.865 162.233 422.865 161.959C422.865 161.685 422.759 161.421 422.57 161.222C422.381 161.024 422.122 160.906 421.848 160.893Z" fill="black"/>
<path d="M446.919 168.413C445.724 157.126 443.865 145.918 441.351 134.85C439.007 125.754 435.634 116.015 426.775 111.378C422.547 109.327 417.956 108.127 413.265 107.846C399.262 107.075 385.217 108.052 371.456 110.754C369.044 111.077 366.723 111.886 364.633 113.131C362.332 114.835 360.493 117.087 359.283 119.682C358.072 122.278 357.53 125.134 357.703 127.992C357.864 130.594 358.281 133.173 358.951 135.693C360.358 141.192 361.527 146.751 362.954 152.243L351.324 152.452C351.184 152.456 351.046 152.487 350.919 152.545C350.791 152.602 350.676 152.683 350.58 152.785C350.483 152.887 350.408 153.006 350.358 153.137C350.308 153.268 350.285 153.407 350.289 153.547C350.294 153.82 350.404 154.08 350.598 154.273C350.791 154.466 351.051 154.577 351.324 154.582C355.386 154.599 359.459 154.437 363.509 154.363C364.534 158.169 365.653 161.95 366.945 165.687C368.297 170.687 370.611 175.376 373.758 179.491C376.835 182.922 380.808 185.426 385.23 186.721C398.295 191.113 417.275 189.555 430.931 187.258C433.999 186.774 436.953 185.735 439.647 184.192C442.87 182.052 445.263 178.874 446.431 175.187C447.086 173.044 447.255 170.782 446.924 168.566C446.925 168.515 446.924 168.464 446.919 168.413ZM361.039 135.266C360.401 132.887 359.998 130.45 359.836 127.992C359.652 125.353 360.171 122.713 361.341 120.34C362.51 117.967 364.287 115.946 366.491 114.484C367.823 113.781 369.26 113.297 370.746 113.052C373.269 126.197 376.586 139.176 380.68 151.92L365.133 152.203C362.917 143.709 361.864 138.498 361.039 135.266ZM434.104 184.288C427.075 186.082 419.86 187.051 412.606 187.174C405.787 187.663 398.935 187.364 392.184 186.284C387.841 185.6 383.662 184.116 379.859 181.909C375.969 179.33 372.977 175.605 371.298 171.25C369.034 165.748 367.164 160.091 365.705 154.323L381.38 154.04C382.899 159.04 384.78 163.924 387.007 168.652C388.014 171.209 389.909 173.316 392.344 174.588C395.289 176.057 398.473 176.985 401.746 177.329C409.97 178.261 418.284 178.043 426.447 176.681C432.763 175.912 438.955 174.338 444.871 171.997C444.551 174.902 443.347 177.639 441.421 179.837C439.496 182.035 436.941 183.589 434.104 184.288ZM428.868 174.152C420.95 175.613 412.88 176.08 404.847 175.539C401.512 175.345 398.223 174.667 395.083 173.526C392.771 172.77 390.823 171.181 389.618 169.069C387.148 164.244 385.135 159.199 383.603 154L387.853 153.921C388.135 153.921 388.406 153.809 388.606 153.61C388.806 153.41 388.918 153.139 388.918 152.857C388.918 152.574 388.806 152.303 388.606 152.104C388.406 151.904 388.135 151.792 387.853 151.792L382.891 151.88C378.696 139.036 375.342 125.931 372.851 112.65C384.085 110.551 395.497 109.56 406.925 109.692C411.425 109.628 415.917 110.125 420.295 111.171C424.632 112.209 428.556 114.528 431.557 117.826C434.327 121.342 436.392 125.36 437.638 129.658C440.546 139.969 442.615 150.497 443.826 161.141C445.021 170.222 444.812 168.389 444.893 169.584C439.792 171.851 434.398 173.389 428.868 174.152Z" fill="black"/>
<path d="M315.241 113.207L337.236 112.544C338.604 112.505 338.611 110.373 337.236 110.414L315.241 111.075C313.873 111.117 313.868 113.247 315.241 113.207Z" fill="black"/>
<path d="M106.738 122.734C106.455 122.734 106.184 122.847 105.985 123.046C105.785 123.246 105.673 123.517 105.673 123.799C105.673 124.082 105.785 124.353 105.985 124.552C106.184 124.752 106.455 124.864 106.738 124.864L133.293 124.204C133.567 124.19 133.825 124.072 134.015 123.874C134.204 123.675 134.309 123.412 134.309 123.138C134.309 122.863 134.204 122.6 134.015 122.401C133.825 122.203 133.567 122.085 133.293 122.071L106.738 122.734Z" fill="black"/>
<path d="M312.132 332.886C312.125 332.605 312.011 332.339 311.813 332.14C311.615 331.942 311.348 331.828 311.067 331.821C310.928 331.821 310.789 331.848 310.66 331.901C310.53 331.955 310.413 332.033 310.314 332.132C310.215 332.231 310.136 332.348 310.083 332.478C310.03 332.607 310.002 332.746 310.003 332.886C310.25 334.972 310.793 337.013 311.615 338.947C311.759 339.19 311.992 339.365 312.265 339.437C312.537 339.509 312.827 339.47 313.071 339.329C313.311 339.182 313.484 338.948 313.555 338.676C313.627 338.405 313.591 338.116 313.456 337.87C312.785 336.278 312.34 334.601 312.132 332.886Z" fill="black"/>
<path d="M328.834 333.655C328.972 332.291 326.843 332.301 326.705 333.655C326.474 336.061 326.915 338.484 327.979 340.655C328.571 341.888 330.41 340.81 329.82 339.578C328.951 337.733 328.609 335.682 328.834 333.655Z" fill="black"/>
<path d="M287.039 272.966C286.576 271.687 284.515 272.226 284.983 273.533L288.03 281.914C288.496 283.193 290.557 282.653 290.086 281.347L287.039 272.966Z" fill="black"/>
<path d="M308.196 221.228C308.689 222.495 310.744 221.945 310.249 220.664C308.259 215.487 306.628 210.18 305.368 204.779C305.055 203.445 303.002 204.01 303.312 205.346C304.003 208.304 304.811 211.218 305.718 214.107C295.553 218.79 269.951 230.344 267.346 231.507C267.032 230.371 266.705 229.237 266.419 228.093C266.333 227.833 266.151 227.616 265.909 227.487C265.668 227.358 265.386 227.326 265.123 227.399C264.859 227.471 264.633 227.642 264.491 227.876C264.35 228.111 264.304 228.39 264.363 228.658C265.305 232.426 266.399 236.149 267.646 239.829C268.083 241.121 270.143 240.568 269.7 239.262C269.062 237.379 268.465 235.483 267.908 233.575C280.749 227.799 293.575 221.986 306.384 216.138C306.953 217.846 307.547 219.547 308.196 221.228Z" fill="black"/>
<path d="M96.116 315.12C97.2671 315.872 98.3345 314.028 97.1907 313.279C95.3471 312.07 93.6518 310.649 92.1399 309.044C91.1958 308.046 89.6897 309.557 90.6338 310.553C92.2769 312.284 94.1168 313.817 96.116 315.12Z" fill="black"/>
<path d="M148.47 289.514C148.381 288.15 146.251 288.141 146.34 289.514L146.665 294.582C146.754 295.945 148.884 295.952 148.795 294.582L148.47 289.514Z" fill="black"/>
<path d="M235.961 181.46C234.572 181.754 233.205 182.143 231.869 182.624C230.587 183.085 231.129 185.143 232.436 184.68C233.772 184.199 235.139 183.809 236.528 183.514C237.876 183.23 237.302 181.177 235.961 181.46Z" fill="black"/>
<path d="M193.506 287.418C198.633 287.313 211.163 287.709 216.855 288.025C232.631 288.486 242.984 296.566 247.561 313.947C249.023 319.669 249.965 325.512 250.376 331.404C251.143 341.353 251.318 351.94 251.498 362.539C251.498 362.822 251.61 363.093 251.81 363.292C252.009 363.492 252.28 363.604 252.563 363.604C252.845 363.604 253.116 363.492 253.316 363.292C253.515 363.093 253.627 362.822 253.627 362.539C253.162 337.448 252.811 327.418 250.063 315.177C248.726 308.315 245.715 301.89 241.297 296.472C238.544 293.353 235.188 290.823 231.431 289.034C227.675 287.246 223.595 286.235 219.438 286.063C210.704 285.382 198.508 285.183 193.506 285.289C193.224 285.289 192.953 285.401 192.753 285.601C192.553 285.8 192.441 286.071 192.441 286.354C192.441 286.636 192.553 286.907 192.753 287.107C192.953 287.306 193.224 287.418 193.506 287.418Z" fill="black"/>
<path d="M177.571 313.302C176.968 312.069 175.129 313.149 175.73 314.376L180.009 323.107C180.613 324.34 182.452 323.26 181.848 322.033L177.571 313.302Z" fill="black"/>
<path d="M199.769 317.928L195.352 309.249C194.73 308.016 192.887 309.103 193.51 310.323L197.928 319.003C198.549 320.225 200.39 319.148 199.769 317.928Z" fill="black"/>
</svg>
