<svg width="143" height="143" viewBox="0 0 143 143" fill="none" xmlns="http://www.w3.org/2000/svg">
<path d="M43.5198 68.3266C44.0816 68.3266 44.6153 68.3547 45.1209 68.4109C45.6546 68.4671 46.1883 68.5935 46.722 68.7901L33.323 86.5712C33.0983 86.1779 32.9157 85.7285 32.7752 85.2229C32.6348 84.7172 32.5084 84.1976 32.396 83.6639C32.3118 83.1021 32.2415 82.5543 32.1854 82.0206C32.1573 81.4869 32.1432 81.0093 32.1432 80.588C32.1432 78.7059 32.4382 77.0205 33.0281 75.5317C33.618 74.0149 34.4185 72.7227 35.4298 71.6553C36.4691 70.5879 37.677 69.7733 39.0534 69.2114C40.4579 68.6216 41.9467 68.3266 43.5198 68.3266Z" fill="#4C9790"/>
<path fill-rule="evenodd" clip-rule="evenodd" d="M71.5 0C110.988 0 143 32.0116 143 71.5C143 110.988 110.988 143 71.5 143C32.0116 143 0 110.988 0 71.5C0 32.0116 32.0116 0 71.5 0ZM43.5198 56.6973C40.3456 56.6973 37.354 57.2731 34.5449 58.4248C31.764 59.5765 29.3202 61.1917 27.2134 63.2704C25.1347 65.3491 23.4914 67.8631 22.2836 70.8126C21.0757 73.7621 20.4717 77.0205 20.4717 80.588C20.4717 84.0712 21.0757 87.2735 22.2836 90.1948C23.4914 93.0881 25.1347 95.5882 27.2134 97.6949C29.3202 99.8017 31.764 101.445 34.5449 102.625C37.354 103.805 40.3456 104.394 43.5198 104.394C45.4018 104.394 47.2277 104.17 48.9973 103.72C50.7951 103.299 52.4946 102.667 54.0957 101.824C55.7249 100.981 57.2278 99.9562 58.6042 98.7483C60.0087 97.5404 61.2447 96.178 62.3121 94.6612L53.885 86.192C53.4356 87.2032 52.8457 88.1302 52.1154 88.9729C51.4131 89.7875 50.5985 90.4898 49.6715 91.0797C48.7726 91.6415 47.8035 92.0769 46.7642 92.3859C45.7248 92.6949 44.6434 92.8494 43.5198 92.8494C43.0703 92.8494 42.6209 92.8353 42.1714 92.8072C41.722 92.751 41.2725 92.6527 40.8231 92.5123L62.3964 66.5148C61.3289 64.9979 60.093 63.6355 58.6885 62.4277C57.284 61.1917 55.7671 60.1524 54.1378 59.3097C52.5367 58.4669 50.8372 57.8209 49.0395 57.3714C47.2417 56.922 45.4018 56.6973 43.5198 56.6973ZM69.433 103.552H81.5258V79.4082H105.669V103.552H117.762V43.1297H105.669V67.3154H81.5258V43.1297H69.433V103.552ZM59.4541 44.0133C58.471 44.0133 57.5299 44.21 56.6311 44.6032C55.7603 44.9684 54.9878 45.474 54.3136 46.1201C53.6675 46.7662 53.1479 47.5246 52.7546 48.3954C52.3894 49.2662 52.2068 50.1932 52.2068 51.1763C52.2068 52.1876 52.3894 53.1427 52.7546 54.0415C53.1479 54.9123 53.6675 55.6708 54.3136 56.3168C54.9878 56.9629 55.7603 57.4685 56.6311 57.8337C57.5299 58.227 58.471 58.4236 59.4541 58.4236C60.4654 58.4236 61.4064 58.227 62.2772 57.8337C63.148 57.4685 63.9064 56.9629 64.5525 56.3168C65.1986 55.6708 65.7042 54.9123 66.0694 54.0415C66.4345 53.1427 66.6171 52.1876 66.6171 51.1763C66.6171 50.1932 66.4345 49.2662 66.0694 48.3954C65.7042 47.5246 65.1986 46.7662 64.5525 46.1201C63.9064 45.474 63.148 44.9684 62.2772 44.6032C61.4064 44.21 60.4654 44.0133 59.4541 44.0133Z" fill="#4C9790"/>
</svg>
