<svg width="48" height="48" viewBox="0 0 48 48" fill="none" xmlns="http://www.w3.org/2000/svg">
<path d="M14.3344 22.5052C14.5194 22.5052 14.6952 22.5145 14.8618 22.533C15.0376 22.5515 15.2134 22.5931 15.3892 22.6579L10.9758 28.5146C10.9018 28.385 10.8417 28.237 10.7954 28.0704C10.7492 27.9039 10.7075 27.7327 10.6705 27.5569C10.6427 27.3719 10.6196 27.1915 10.6011 27.0157C10.5919 26.8399 10.5872 26.6826 10.5872 26.5438C10.5872 25.9239 10.6844 25.3688 10.8787 24.8784C11.073 24.3788 11.3367 23.9532 11.6698 23.6016C12.0121 23.25 12.4099 22.9817 12.8633 22.7967C13.3259 22.6024 13.8163 22.5052 14.3344 22.5052Z" fill="#636D72"/>
<path fill-rule="evenodd" clip-rule="evenodd" d="M23.5505 0C36.557 0 47.1009 10.5439 47.1009 23.5505C47.1009 36.557 36.557 47.1009 23.5505 47.1009C10.5439 47.1009 0 36.557 0 23.5505C0 10.5439 10.5439 0 23.5505 0ZM14.3344 18.6748C13.2889 18.6748 12.3035 18.8644 11.3783 19.2438C10.4623 19.6231 9.65738 20.1551 8.96346 20.8398C8.2788 21.5245 7.73754 22.3526 7.33969 23.324C6.94184 24.2955 6.74292 25.3688 6.74292 26.5438C6.74292 27.6911 6.94184 28.7459 7.33969 29.7081C7.73754 30.6611 8.2788 31.4845 8.96346 32.1785C9.65738 32.8724 10.4623 33.4136 11.3783 33.8022C12.3035 34.1908 13.2889 34.3851 14.3344 34.3851C14.9543 34.3851 15.5557 34.3111 16.1386 34.1631C16.7307 34.0243 17.2905 33.8161 17.8179 33.5385C18.3545 33.261 18.8495 32.9233 19.3029 32.5254C19.7655 32.1276 20.1726 31.6788 20.5242 31.1792L17.7485 28.3897C17.6005 28.7227 17.4062 29.0281 17.1656 29.3056C16.9343 29.5739 16.666 29.8053 16.3606 29.9995C16.0646 30.1846 15.7454 30.328 15.403 30.4298C15.0607 30.5316 14.7045 30.5824 14.3344 30.5824C14.1864 30.5824 14.0383 30.5778 13.8903 30.5686C13.7423 30.5501 13.5942 30.5177 13.4462 30.4714L20.5519 21.9084C20.2003 21.4088 19.7932 20.9601 19.3306 20.5622C18.868 20.1551 18.3684 19.8128 17.8318 19.5352C17.3044 19.2577 16.7446 19.0449 16.1525 18.8968C15.5603 18.7488 14.9543 18.6748 14.3344 18.6748ZM22.8696 34.1076H26.8527V26.1552H34.805V34.1076H38.7881V14.2059H34.805V22.1721H26.8527V14.2059H22.8696V34.1076ZM19.5828 14.497C19.259 14.497 18.949 14.5617 18.653 14.6913C18.3661 14.8116 18.1117 14.9781 17.8897 15.1909C17.6769 15.4037 17.5057 15.6535 17.3762 15.9403C17.2559 16.2272 17.1957 16.5325 17.1957 16.8563C17.1957 17.1894 17.2559 17.504 17.3762 17.8C17.5057 18.0869 17.6769 18.3367 17.8897 18.5495C18.1117 18.7623 18.3661 18.9288 18.653 19.0491C18.949 19.1786 19.259 19.2434 19.5828 19.2434C19.9159 19.2434 20.2259 19.1786 20.5127 19.0491C20.7995 18.9288 21.0493 18.7623 21.2621 18.5495C21.4749 18.3367 21.6414 18.0869 21.7617 17.8C21.882 17.504 21.9421 17.1894 21.9421 16.8563C21.9421 16.5325 21.882 16.2272 21.7617 15.9403C21.6414 15.6535 21.4749 15.4037 21.2621 15.1909C21.0493 14.9781 20.7995 14.8116 20.5127 14.6913C20.2259 14.5617 19.9159 14.497 19.5828 14.497Z" fill="#636D72"/>
</svg>
