<svg width="47" height="47" viewBox="0 0 47 47" fill="none" xmlns="http://www.w3.org/2000/svg">
<path fill-rule="evenodd" clip-rule="evenodd" d="M15.6667 13.7083C15.6667 11.6308 16.492 9.63836 17.961 8.16933C19.43 6.70029 21.4225 5.875 23.5 5.875C25.5775 5.875 27.57 6.70029 29.039 8.16933C30.508 9.63836 31.3333 11.6308 31.3333 13.7083C31.3333 15.7859 30.508 17.7783 29.039 19.2473C27.57 20.7164 25.5775 21.5417 23.5 21.5417C21.4225 21.5417 19.43 20.7164 17.961 19.2473C16.492 17.7783 15.6667 15.7859 15.6667 13.7083ZM15.6667 25.4583C13.0698 25.4583 10.5792 26.49 8.74291 28.3262C6.90662 30.1625 5.875 32.6531 5.875 35.25C5.875 36.8081 6.49397 38.3025 7.59575 39.4043C8.69752 40.506 10.1919 41.125 11.75 41.125H35.25C36.8081 41.125 38.3025 40.506 39.4043 39.4043C40.506 38.3025 41.125 36.8081 41.125 35.25C41.125 32.6531 40.0934 30.1625 38.2571 28.3262C36.4208 26.49 33.9302 25.4583 31.3333 25.4583H15.6667Z" fill="#F7F4ED"/>
</svg>
