<svg width="30" height="30" viewBox="0 0 30 30" fill="none" xmlns="http://www.w3.org/2000/svg">
<path d="M26.1262 18.7438L26.0713 18.7363C26.0278 18.7335 25.985 18.7251 25.9437 18.7113L25.8875 18.6963L25.8275 18.675L25.7713 18.655L25.7175 18.63L25.6612 18.6025L25.6112 18.5725L25.5562 18.54L25.5025 18.5L25.4575 18.4663C25.4257 18.4403 25.3953 18.4127 25.3662 18.3838L21.9825 15H13.75C13.087 15 12.4511 14.7366 11.9822 14.2678C11.5134 13.7989 11.25 13.163 11.25 12.5V5C11.25 4.33696 11.5134 3.70107 11.9822 3.23223C12.4511 2.76339 13.087 2.5 13.75 2.5H25C25.663 2.5 26.2989 2.76339 26.7678 3.23223C27.2366 3.70107 27.5 4.33696 27.5 5V17.5C27.5001 17.6643 27.4678 17.827 27.405 17.9788L27.38 18.0325L27.3525 18.0888L27.3225 18.1388L27.29 18.1938L27.25 18.2475L27.2163 18.2925C27.0329 18.5164 26.7775 18.6697 26.4937 18.7263L26.4287 18.7363L26.3738 18.7438C26.2915 18.7519 26.2085 18.7519 26.1262 18.7438Z" fill="#2A4744"/>
<path d="M8.75 11.2488V12.5C8.75 13.8261 9.27678 15.0979 10.2145 16.0356C11.1521 16.9732 12.4239 17.5 13.75 17.5H18.75V21.25C18.75 21.9131 18.4866 22.549 18.0178 23.0178C17.5489 23.4866 16.913 23.75 16.25 23.75H8.0175L4.63375 27.1338C3.84625 27.9213 2.5 27.3638 2.5 26.25V13.75C2.5 13.087 2.76339 12.4511 3.23223 11.9823C3.70107 11.5134 4.33696 11.25 5 11.25L8.75 11.2488Z" fill="#2A4744"/>
</svg>
