<svg width="40" height="40" viewBox="0 0 40 40" fill="none" xmlns="http://www.w3.org/2000/svg">
<path d="M3.33325 6.655C3.3363 6.2173 3.51142 5.79836 3.82077 5.4887C4.13013 5.17903 4.54889 5.00349 4.98659 5H35.0133C35.9266 5 36.6666 5.74167 36.6666 6.655V33.345C36.6635 33.7827 36.4884 34.2016 36.1791 34.5113C35.8697 34.821 35.451 34.9965 35.0133 35H4.98659C4.54794 34.9996 4.12741 34.825 3.8174 34.5147C3.50739 34.2043 3.33325 33.7836 3.33325 33.345V6.655ZM9.99992 25V28.3333H29.9999V25H9.99992ZM9.99992 11.6667V21.6667H19.9999V11.6667H9.99992ZM23.3333 11.6667V15H29.9999V11.6667H23.3333ZM23.3333 18.3333V21.6667H29.9999V18.3333H23.3333ZM13.3333 15H16.6666V18.3333H13.3333V15Z" fill="#2A4744"/>
</svg>
