<svg width="12" height="4" viewBox="0 0 12 4" fill="none" xmlns="http://www.w3.org/2000/svg">
<path d="M0 1.52539C0 1.0957 0.14681 0.734049 0.44043 0.44043C0.734049 0.14681 1.13151 0 1.63281 0C2.13411 0 2.53158 0.14681 2.8252 0.44043C3.11882 0.734049 3.26562 1.0957 3.26562 1.52539C3.26562 1.94792 3.11882 2.30599 2.8252 2.59961C2.53158 2.88607 2.13411 3.0293 1.63281 3.0293C1.13151 3.0293 0.734049 2.88607 0.44043 2.59961C0.14681 2.30599 0 1.94792 0 1.52539ZM4.25195 1.52539C4.25195 1.0957 4.39876 0.734049 4.69238 0.44043C4.986 0.14681 5.38346 0 5.88477 0C6.38607 0 6.78353 0.14681 7.07715 0.44043C7.37077 0.734049 7.51758 1.0957 7.51758 1.52539C7.51758 1.94792 7.37077 2.30599 7.07715 2.59961C6.78353 2.88607 6.38607 3.0293 5.88477 3.0293C5.38346 3.0293 4.986 2.88607 4.69238 2.59961C4.39876 2.30599 4.25195 1.94792 4.25195 1.52539ZM8.50391 1.52539C8.50391 1.0957 8.65072 0.734049 8.94434 0.44043C9.23796 0.14681 9.63542 0 10.1367 0C10.638 0 11.0355 0.14681 11.3291 0.44043C11.6227 0.734049 11.7695 1.0957 11.7695 1.52539C11.7695 1.94792 11.6227 2.30599 11.3291 2.59961C11.0355 2.88607 10.638 3.0293 10.1367 3.0293C9.63542 3.0293 9.23796 2.88607 8.94434 2.59961C8.65072 2.30599 8.50391 1.94792 8.50391 1.52539Z" fill="#2A4744"/>
</svg>
