<svg width="40" height="40" viewBox="0 0 40 40" fill="none" xmlns="http://www.w3.org/2000/svg">
<g clip-path="url(#clip0_28_2466)">
<path d="M17.4999 33.7499C14.9724 33.7508 12.4732 33.2169 10.1666 32.1832C10.1048 32.1511 10.0362 32.1343 9.96661 32.1343C9.89698 32.1343 9.82838 32.1511 9.76661 32.1832C9.70948 32.2218 9.66282 32.274 9.63082 32.3351C9.59883 32.3962 9.58249 32.4643 9.58328 32.5332V35.8666C9.58328 36.0876 9.67108 36.2995 9.82736 36.4558C9.98364 36.6121 10.1956 36.6999 10.4166 36.6999H12.4999C12.6105 36.6999 12.7164 36.7438 12.7946 36.8219C12.8727 36.9001 12.9166 37.0061 12.9166 37.1166V39.1666C12.9166 39.3876 13.0044 39.5995 13.1607 39.7558C13.317 39.9121 13.5289 39.9999 13.7499 39.9999H22.0833C22.3043 39.9999 22.5163 39.9121 22.6725 39.7558C22.8288 39.5995 22.9166 39.3876 22.9166 39.1666V37.0832C22.9166 36.9727 22.9605 36.8667 23.0387 36.7886C23.1168 36.7105 23.2228 36.6666 23.3333 36.6666H25.4166C25.6376 36.6666 25.8496 36.5788 26.0059 36.4225C26.1621 36.2662 26.2499 36.0542 26.2499 35.8332V32.1666C26.2506 32.0957 26.2324 32.026 26.1973 31.9645C26.1621 31.903 26.1113 31.852 26.0499 31.8166C25.9897 31.7797 25.9205 31.7603 25.8499 31.7603C25.7794 31.7603 25.7102 31.7797 25.6499 31.8166C23.1253 33.0989 20.3316 33.7616 17.4999 33.7499Z" fill="#2A4744"/>
<path d="M37.1832 31.5666L30.2999 24.6833C30.2343 24.6099 30.198 24.515 30.198 24.4166C30.198 24.3182 30.2343 24.2233 30.2999 24.1499C32.4727 20.9761 33.382 17.1054 32.8498 13.2961C32.3176 9.48687 30.3822 6.01359 27.4228 3.55684C24.4634 1.10008 20.6932 -0.163087 16.8511 0.0148226C13.0089 0.192732 9.37165 1.7989 6.65192 4.51862C3.9322 7.23835 2.32603 10.8756 2.14812 14.7178C1.97021 18.5599 3.23338 22.3301 5.69014 25.2895C8.14689 28.2489 11.6202 30.1843 15.4294 30.7165C19.2387 31.2487 23.1094 30.3394 26.2832 28.1666C26.3566 28.101 26.4515 28.0647 26.5499 28.0647C26.6483 28.0647 26.7432 28.101 26.8166 28.1666L33.6999 35.0499C34.1686 35.5181 34.8041 35.7811 35.4666 35.7811C36.1291 35.7811 36.7645 35.5181 37.2332 35.0499C37.6836 34.5789 37.9308 33.9497 37.9215 33.298C37.9121 32.6464 37.647 32.0245 37.1832 31.5666ZM14.1999 12.6166C14.2176 12.5529 14.2514 12.4949 14.2982 12.4482C14.3449 12.4015 14.4029 12.3676 14.4666 12.3499C14.5203 12.3208 14.5804 12.3055 14.6416 12.3055C14.7027 12.3055 14.7628 12.3208 14.8166 12.3499C16.245 13.2453 17.8973 13.7191 19.5832 13.7166C20.1425 13.7077 20.7 13.652 21.2499 13.5499C21.2732 13.5382 21.2988 13.5321 21.3249 13.5321C21.3509 13.5321 21.3766 13.5382 21.3999 13.5499C21.4151 13.5931 21.4151 13.6401 21.3999 13.6833C21.3999 14.6778 21.0048 15.6317 20.3015 16.3349C19.5983 17.0382 18.6445 17.4333 17.6499 17.4333C16.6553 17.4333 15.7015 17.0382 14.9982 16.3349C14.295 15.6317 13.8999 14.6778 13.8999 13.6833C13.9453 13.3146 14.0464 12.9549 14.1999 12.6166ZM5.41656 15.4333C5.41566 13.429 5.91261 11.456 6.86278 9.69133C7.81296 7.92667 9.18659 6.42566 10.8603 5.32313C12.534 4.22061 14.4554 3.55109 16.4518 3.37473C18.4483 3.19837 20.4572 3.52068 22.2983 4.31272C24.1394 5.10476 25.7549 6.34171 26.9997 7.91248C28.2445 9.48324 29.0797 11.3386 29.4301 13.312C29.7806 15.2853 29.6354 17.3148 29.0076 19.2181C28.3798 21.1215 27.289 22.839 25.8332 24.2166C25.7954 24.2568 25.7482 24.287 25.6958 24.3044C25.6435 24.3219 25.5876 24.3261 25.5332 24.3166C25.4795 24.3092 25.428 24.2906 25.382 24.2619C25.3361 24.2331 25.2967 24.195 25.2666 24.1499C24.2919 22.6208 22.8812 21.4191 21.2166 20.6999C21.1461 20.6658 21.0867 20.6125 21.0451 20.5462C21.0036 20.4799 20.9815 20.4032 20.9815 20.3249C20.9815 20.2467 21.0036 20.17 21.0451 20.1036C21.0867 20.0373 21.1461 19.984 21.2166 19.9499C22.5918 19.1952 23.6768 18.0043 24.3005 16.5649C24.9243 15.1255 25.0514 13.5195 24.6618 12C24.2723 10.4804 23.3881 9.13365 22.1488 8.17196C20.9094 7.21026 19.3853 6.68828 17.8166 6.68828C16.2478 6.68828 14.7237 7.21026 13.4844 8.17196C12.245 9.13365 11.3609 10.4804 10.9713 12C10.5817 13.5195 10.7088 15.1255 11.3326 16.5649C11.9564 18.0043 13.0413 19.1952 14.4166 19.9499C14.4862 19.9856 14.5439 20.041 14.5824 20.1091C14.6209 20.1772 14.6386 20.2552 14.6332 20.3333C14.6289 20.4136 14.6015 20.491 14.5541 20.556C14.5068 20.6211 14.4417 20.6711 14.3666 20.6999C12.5726 21.3658 11.0885 22.6719 10.1999 24.3666C10.1738 24.423 10.1343 24.4721 10.085 24.5099C10.0356 24.5476 9.97781 24.5728 9.91656 24.5833C9.85949 24.6112 9.79678 24.6258 9.73323 24.6258C9.66968 24.6258 9.60697 24.6112 9.5499 24.5833C8.24616 23.4428 7.20247 22.0358 6.48939 20.4572C5.77631 18.8787 5.41045 17.1654 5.41656 15.4333Z" fill="#2A4744"/>
</g>
<defs>
<clipPath id="clip0_28_2466">
<rect width="40" height="40" fill="white"/>
</clipPath>
</defs>
</svg>
