<svg width="30" height="30" viewBox="0 0 30 30" fill="none" xmlns="http://www.w3.org/2000/svg">
<path d="M5 23.75V21.25H7.5V12.5C7.5 10.7708 8.02083 9.23459 9.0625 7.89125C10.1042 6.54792 11.4583 5.6675 13.125 5.25V4.375C13.125 3.85417 13.3075 3.41167 13.6725 3.0475C14.0375 2.68334 14.48 2.50084 15 2.5C15.52 2.49917 15.9629 2.68167 16.3287 3.0475C16.6946 3.41334 16.8767 3.85584 16.875 4.375V5.25C18.5417 5.66667 19.8958 6.54709 20.9375 7.89125C21.9792 9.23542 22.5 10.7717 22.5 12.5V21.25H25V23.75H5ZM15 27.5C14.3125 27.5 13.7242 27.2554 13.235 26.7663C12.7458 26.2771 12.5008 25.6883 12.5 25H17.5C17.5 25.6875 17.2554 26.2763 16.7663 26.7663C16.2771 27.2563 15.6883 27.5008 15 27.5Z" fill="#2A4744"/>
</svg>
