<svg width="40" height="40" viewBox="0 0 40 40" fill="none" xmlns="http://www.w3.org/2000/svg">
<path d="M6.66675 31.6666V16.6666C6.66675 16.1388 6.78508 15.6388 7.02175 15.1666C7.25841 14.6944 7.58453 14.3055 8.00008 13.9999L18.0001 6.49992C18.5834 6.05547 19.2501 5.83325 20.0001 5.83325C20.7501 5.83325 21.4167 6.05547 22.0001 6.49992L32.0001 13.9999C32.4167 14.3055 32.7434 14.6944 32.9801 15.1666C33.2167 15.6388 33.3345 16.1388 33.3334 16.6666V31.6666C33.3334 32.5833 33.0067 33.3683 32.3534 34.0216C31.7001 34.6749 30.9156 35.001 30.0001 34.9999H25.0001C24.5279 34.9999 24.1323 34.8399 23.8134 34.5199C23.4945 34.1999 23.3345 33.8044 23.3334 33.3333V24.9999C23.3334 24.5277 23.1734 24.1321 22.8534 23.8133C22.5334 23.4944 22.1379 23.3344 21.6667 23.3333H18.3334C17.8612 23.3333 17.4656 23.4933 17.1467 23.8133C16.8279 24.1333 16.6679 24.5288 16.6667 24.9999V33.3333C16.6667 33.8055 16.5067 34.2016 16.1867 34.5216C15.8667 34.8416 15.4712 35.001 15.0001 34.9999H10.0001C9.08341 34.9999 8.29897 34.6738 7.64675 34.0216C6.99453 33.3694 6.66786 32.5844 6.66675 31.6666Z" fill="#F7F4ED"/>
</svg>
